<svg version="1.1" id="Layer_1" xmlns="http://www.w3.org/2000/svg" xmlns:xlink="http://www.w3.org/1999/xlink" x="0px" y="0px"
	 width="100%" viewBox="0 0 895 268" enable-background="new 0 0 895 268" xml:space="preserve">
<path fill="#000000" opacity="1.000000" stroke="none" 
	d="
M578.000000,269.000000 
	C385.333374,269.000000 193.166763,269.000000 1.000103,269.000000 
	C1.000069,179.666733 1.000069,90.333466 1.000034,1.000151 
	C299.333191,1.000101 597.666382,1.000101 895.999634,1.000050 
	C895.999756,90.333168 895.999756,179.666336 895.999878,268.999756 
	C790.166687,269.000000 684.333313,269.000000 578.000000,269.000000 
M426.999908,146.500000 
	C426.667328,124.408310 426.690735,102.303581 425.882538,80.229301 
	C425.301208,64.351791 415.731750,53.183758 403.816833,44.053322 
	C391.996216,34.995182 377.767090,32.051048 363.390747,31.210007 
	C351.521088,30.515612 339.527466,31.380249 327.617981,32.063293 
	C311.553711,32.984627 296.105103,37.221703 280.885345,42.134457 
	C271.321289,45.221615 265.227112,56.616741 267.045929,66.771248 
	C268.953827,77.422760 278.636047,85.473633 288.757324,86.146553 
	C297.783173,86.746643 305.350647,82.938828 313.234009,79.913612 
	C328.296387,74.133446 343.679047,72.719765 359.205261,77.119682 
	C366.059906,79.062202 372.309692,83.117226 373.810699,90.798393 
	C374.741486,95.561607 373.983398,100.654846 373.983398,105.239532 
	C360.934967,106.183266 348.447296,107.031776 335.969147,108.002296 
	C319.099792,109.314369 303.333893,114.350166 288.715576,122.771935 
	C278.726624,128.526657 269.767456,135.616226 262.982147,145.124161 
	C252.214035,160.213043 248.271439,176.780502 250.868759,195.277710 
	C253.241776,212.177704 261.843506,225.113297 275.038513,234.868866 
	C295.884460,250.281067 319.605164,252.280853 343.972931,246.275665 
	C354.910675,243.580154 365.246735,238.443024 376.148590,234.302658 
	C375.991730,234.089218 376.631042,234.840286 377.140808,235.670868 
	C384.137756,247.070892 394.745880,250.777451 407.306915,248.853119 
	C417.057495,247.359360 426.963806,237.460541 426.986542,224.478470 
	C427.031433,198.819061 426.999878,173.159500 426.999908,146.500000 
M465.400787,201.889923 
	C470.733551,221.005341 483.154022,234.189606 500.804688,242.194321 
	C520.395874,251.079117 540.878662,251.572784 561.278137,245.169769 
	C570.778564,242.187759 579.839355,237.805099 589.320801,233.967728 
	C593.812988,241.731934 600.423767,246.926376 610.192810,249.341553 
	C624.417969,252.858353 640.354431,237.884293 640.213684,225.671890 
	C639.682007,179.529099 640.024841,133.376511 639.989014,87.227631 
	C639.972229,65.560188 628.995728,50.280838 610.848816,40.099361 
	C589.958557,28.378717 566.694580,30.026928 544.126343,31.451950 
	C529.485535,32.376411 515.065796,36.963127 500.573761,40.035355 
	C487.148987,42.881340 477.750549,52.507206 480.974152,69.039558 
	C482.369873,76.197578 492.173981,85.650635 499.414642,85.926262 
	C505.622772,86.162582 511.806213,86.528305 517.739014,83.246780 
	C522.096130,80.836815 527.129150,79.631592 531.889404,77.971107 
	C542.126587,74.400146 552.789795,74.176857 563.340393,75.118500 
	C581.414246,76.731613 591.217407,86.745041 587.387207,105.271057 
	C574.423401,106.184349 561.561829,106.796829 548.764648,108.061462 
	C530.001099,109.915695 512.352173,115.438774 496.647156,126.131996 
	C483.944946,134.780670 473.533447,145.484085 467.940857,160.219070 
	C462.870239,173.578842 462.657043,187.242722 465.400787,201.889923 
M677.000061,69.501862 
	C677.000061,121.482216 676.891296,173.462982 677.086304,225.442596 
	C677.128357,236.657974 683.694153,244.130356 693.737854,248.143799 
	C703.211975,251.929626 712.375549,250.613846 720.424866,244.029938 
	C727.425293,238.303879 729.961304,230.507095 729.977539,221.788513 
	C730.035156,190.800323 729.981934,159.811935 730.006653,128.823654 
	C730.021973,109.576744 737.576050,93.836021 752.633301,81.934395 
	C769.523926,68.583641 788.938538,74.750984 798.906677,92.086960 
	C804.395264,101.632278 805.763123,112.591019 805.873413,123.356064 
	C806.218323,157.006485 805.991333,190.662704 806.006592,224.316666 
	C806.010010,231.928009 808.954773,238.649246 814.344299,243.597382 
	C822.255676,250.860855 831.876465,252.025986 841.787415,247.996475 
	C852.040466,243.827835 856.806885,235.490891 856.918396,224.824188 
	C857.176025,200.169510 856.896362,175.509766 857.031738,150.853134 
	C857.149597,129.387817 856.855896,107.999405 852.048035,86.902977 
	C847.254150,65.867592 836.505005,49.287197 817.107666,39.055790 
	C803.485352,31.870491 788.769043,30.522104 773.602783,30.904228 
	C756.231140,31.341917 741.038269,37.119209 727.441589,47.633087 
	C721.045410,35.772335 711.916016,30.832834 697.320190,33.187237 
	C686.943970,34.860977 680.105347,42.006615 677.626526,52.142769 
	C676.356323,57.336636 677.143005,63.033501 677.000061,69.501862 
M131.015503,159.514557 
	C132.010300,165.465164 133.701385,171.396881 133.863403,177.370087 
	C134.274414,192.523422 133.910614,207.696304 134.068756,222.859146 
	C134.104141,226.251450 134.643982,229.738770 135.579193,233.002518 
	C138.338654,242.632599 151.473450,251.259003 161.242310,249.965607 
	C175.790894,248.039352 185.352402,239.666855 185.739914,226.884003 
	C186.348328,206.814911 186.391571,186.602402 184.662918,166.624649 
	C182.970932,147.070908 176.272522,128.632141 166.775116,111.220139 
	C155.288849,90.161858 139.063858,73.416908 120.784386,58.387165 
	C108.495461,48.282959 95.813385,38.634388 83.864258,28.147270 
	C75.761780,21.036152 67.253105,16.998432 56.356350,18.981354 
	C47.521461,20.589066 41.013268,25.713469 38.225941,33.800957 
	C35.444969,41.869980 34.847679,50.849331 42.095570,57.427818 
	C51.827286,66.260742 62.056355,74.548073 72.122223,83.009766 
	C80.796288,90.301445 89.798950,97.223686 98.199081,104.815208 
	C114.417297,119.472282 125.110054,137.645157 131.015503,159.514557 
M237.941223,68.275986 
	C241.903229,59.687912 242.941147,50.947815 240.309845,41.663342 
	C236.097046,26.798664 219.075806,12.757680 199.777985,15.774820 
	C178.264389,19.138391 163.864487,39.741573 170.079498,62.060070 
	C174.887772,79.326843 187.481323,87.797020 205.527176,88.063492 
	C220.304535,88.281715 230.301788,81.040955 237.941223,68.275986 
z"/>
<path fill="#E75943" opacity="1.000000" stroke="none" 
	d="
M426.999908,147.000000 
	C426.999878,173.159500 427.031433,198.819061 426.986542,224.478470 
	C426.963806,237.460541 417.057495,247.359360 407.306915,248.853119 
	C394.745880,250.777451 384.137756,247.070892 377.140808,235.670868 
	C376.631042,234.840286 375.991730,234.089218 376.148590,234.302658 
	C365.246735,238.443024 354.910675,243.580154 343.972931,246.275665 
	C319.605164,252.280853 295.884460,250.281067 275.038513,234.868866 
	C261.843506,225.113297 253.241776,212.177704 250.868759,195.277710 
	C248.271439,176.780502 252.214035,160.213043 262.982147,145.124161 
	C269.767456,135.616226 278.726624,128.526657 288.715576,122.771935 
	C303.333893,114.350166 319.099792,109.314369 335.969147,108.002296 
	C348.447296,107.031776 360.934967,106.183266 373.983398,105.239532 
	C373.983398,100.654846 374.741486,95.561607 373.810699,90.798393 
	C372.309692,83.117226 366.059906,79.062202 359.205261,77.119682 
	C343.679047,72.719765 328.296387,74.133446 313.234009,79.913612 
	C305.350647,82.938828 297.783173,86.746643 288.757324,86.146553 
	C278.636047,85.473633 268.953827,77.422760 267.045929,66.771248 
	C265.227112,56.616741 271.321289,45.221615 280.885345,42.134457 
	C296.105103,37.221703 311.553711,32.984627 327.617981,32.063293 
	C339.527466,31.380249 351.521088,30.515612 363.390747,31.210007 
	C377.767090,32.051048 391.996216,34.995182 403.816833,44.053322 
	C415.731750,53.183758 425.301208,64.351791 425.882538,80.229301 
	C426.690735,102.303581 426.667328,124.408310 426.999908,147.000000 
M368.384949,146.000290 
	C362.794769,146.333542 357.200287,146.607376 351.615295,147.012329 
	C339.810791,147.868271 328.347931,150.117767 317.912750,156.036407 
	C302.791656,164.612808 300.435059,181.555313 308.261444,193.493835 
	C313.942688,202.160110 327.505768,206.141769 338.866943,203.714523 
	C350.750549,201.175690 361.117401,195.725662 370.708649,188.582413 
	C372.152222,187.507309 373.816772,185.536819 373.849701,183.948776 
	C374.107788,171.507523 373.992706,159.058548 373.992706,146.293182 
	C372.228027,146.181931 370.788666,146.091187 368.384949,146.000290 
z"/>
<path fill="#E75943" opacity="1.000000" stroke="none" 
	d="
M465.234467,201.499542 
	C462.657043,187.242722 462.870239,173.578842 467.940857,160.219070 
	C473.533447,145.484085 483.944946,134.780670 496.647156,126.131996 
	C512.352173,115.438774 530.001099,109.915695 548.764648,108.061462 
	C561.561829,106.796829 574.423401,106.184349 587.387207,105.271057 
	C591.217407,86.745041 581.414246,76.731613 563.340393,75.118500 
	C552.789795,74.176857 542.126587,74.400146 531.889404,77.971107 
	C527.129150,79.631592 522.096130,80.836815 517.739014,83.246780 
	C511.806213,86.528305 505.622772,86.162582 499.414642,85.926262 
	C492.173981,85.650635 482.369873,76.197578 480.974152,69.039558 
	C477.750549,52.507206 487.148987,42.881340 500.573761,40.035355 
	C515.065796,36.963127 529.485535,32.376411 544.126343,31.451950 
	C566.694580,30.026928 589.958557,28.378717 610.848816,40.099361 
	C628.995728,50.280838 639.972229,65.560188 639.989014,87.227631 
	C640.024841,133.376511 639.682007,179.529099 640.213684,225.671890 
	C640.354431,237.884293 624.417969,252.858353 610.192810,249.341553 
	C600.423767,246.926376 593.812988,241.731934 589.320801,233.967728 
	C579.839355,237.805099 570.778564,242.187759 561.278137,245.169769 
	C540.878662,251.572784 520.395874,251.079117 500.804688,242.194321 
	C483.154022,234.189606 470.733551,221.005341 465.234467,201.499542 
M556.887573,202.602005 
	C565.439148,198.336090 574.065186,194.210861 582.510559,189.744125 
	C586.647461,187.556152 588.630676,184.156693 588.144226,178.959198 
	C587.541748,172.521774 588.000000,165.985077 588.000000,159.491272 
	C588.000000,155.071823 588.000000,150.652374 588.000000,145.539688 
	C580.839417,146.035110 574.428894,146.371475 568.040405,146.950821 
	C561.677307,147.527893 555.122498,147.568680 549.033447,149.237320 
	C538.721619,152.063202 528.325623,155.064331 521.611572,164.777542 
	C512.848633,177.454941 517.671204,196.422501 532.346619,202.004852 
	C540.196716,204.990967 548.117188,204.374161 556.887573,202.602005 
z"/>
<path fill="#E75943" opacity="1.000000" stroke="none" 
	d="
M677.000061,69.002457 
	C677.143005,63.033501 676.356323,57.336636 677.626526,52.142769 
	C680.105347,42.006615 686.943970,34.860977 697.320190,33.187237 
	C711.916016,30.832834 721.045410,35.772335 727.441589,47.633087 
	C741.038269,37.119209 756.231140,31.341917 773.602783,30.904228 
	C788.769043,30.522104 803.485352,31.870491 817.107666,39.055790 
	C836.505005,49.287197 847.254150,65.867592 852.048035,86.902977 
	C856.855896,107.999405 857.149597,129.387817 857.031738,150.853134 
	C856.896362,175.509766 857.176025,200.169510 856.918396,224.824188 
	C856.806885,235.490891 852.040466,243.827835 841.787415,247.996475 
	C831.876465,252.025986 822.255676,250.860855 814.344299,243.597382 
	C808.954773,238.649246 806.010010,231.928009 806.006592,224.316666 
	C805.991333,190.662704 806.218323,157.006485 805.873413,123.356064 
	C805.763123,112.591019 804.395264,101.632278 798.906677,92.086960 
	C788.938538,74.750984 769.523926,68.583641 752.633301,81.934395 
	C737.576050,93.836021 730.021973,109.576744 730.006653,128.823654 
	C729.981934,159.811935 730.035156,190.800323 729.977539,221.788513 
	C729.961304,230.507095 727.425293,238.303879 720.424866,244.029938 
	C712.375549,250.613846 703.211975,251.929626 693.737854,248.143799 
	C683.694153,244.130356 677.128357,236.657974 677.086304,225.442596 
	C676.891296,173.462982 677.000061,121.482216 677.000061,69.002457 
z"/>
<path fill="#E75943" opacity="1.000000" stroke="none" 
	d="
M131.003113,159.093735 
	C125.110054,137.645157 114.417297,119.472282 98.199081,104.815208 
	C89.798950,97.223686 80.796288,90.301445 72.122223,83.009766 
	C62.056355,74.548073 51.827286,66.260742 42.095570,57.427818 
	C34.847679,50.849331 35.444969,41.869980 38.225941,33.800957 
	C41.013268,25.713469 47.521461,20.589066 56.356350,18.981354 
	C67.253105,16.998432 75.761780,21.036152 83.864258,28.147270 
	C95.813385,38.634388 108.495461,48.282959 120.784386,58.387165 
	C139.063858,73.416908 155.288849,90.161858 166.775116,111.220139 
	C176.272522,128.632141 182.970932,147.070908 184.662918,166.624649 
	C186.391571,186.602402 186.348328,206.814911 185.739914,226.884003 
	C185.352402,239.666855 175.790894,248.039352 161.242310,249.965607 
	C151.473450,251.259003 138.338654,242.632599 135.579193,233.002518 
	C134.643982,229.738770 134.104141,226.251450 134.068756,222.859146 
	C133.910614,207.696304 134.274414,192.523422 133.863403,177.370087 
	C133.701385,171.396881 132.010300,165.465164 131.003113,159.093735 
z"/>
<path fill="#E75943" opacity="1.000000" stroke="none" 
	d="
M237.749451,68.607681 
	C230.301788,81.040955 220.304535,88.281715 205.527176,88.063492 
	C187.481323,87.797020 174.887772,79.326843 170.079498,62.060070 
	C163.864487,39.741573 178.264389,19.138391 199.777985,15.774820 
	C219.075806,12.757680 236.097046,26.798664 240.309845,41.663342 
	C242.941147,50.947815 241.903229,59.687912 237.749451,68.607681 
z"/>
<path fill="#000000" opacity="1.000000" stroke="none" 
	d="
M368.867126,146.000366 
	C370.788666,146.091187 372.228027,146.181931 373.992706,146.293182 
	C373.992706,159.058548 374.107788,171.507523 373.849701,183.948776 
	C373.816772,185.536819 372.152222,187.507309 370.708649,188.582413 
	C361.117401,195.725662 350.750549,201.175690 338.866943,203.714523 
	C327.505768,206.141769 313.942688,202.160110 308.261444,193.493835 
	C300.435059,181.555313 302.791656,164.612808 317.912750,156.036407 
	C328.347931,150.117767 339.810791,147.868271 351.615295,147.012329 
	C357.200287,146.607376 362.794769,146.333542 368.867126,146.000366 
z"/>
<path fill="#000000" opacity="1.000000" stroke="none" 
	d="
M556.495728,202.767578 
	C548.117188,204.374161 540.196716,204.990967 532.346619,202.004852 
	C517.671204,196.422501 512.848633,177.454941 521.611572,164.777542 
	C528.325623,155.064331 538.721619,152.063202 549.033447,149.237320 
	C555.122498,147.568680 561.677307,147.527893 568.040405,146.950821 
	C574.428894,146.371475 580.839417,146.035110 588.000000,145.539688 
	C588.000000,150.652374 588.000000,155.071823 588.000000,159.491272 
	C588.000000,165.985077 587.541748,172.521774 588.144226,178.959198 
	C588.630676,184.156693 586.647461,187.556152 582.510559,189.744125 
	C574.065186,194.210861 565.439148,198.336090 556.495728,202.767578 
z"/>
</svg>