<svg width="300" height="282" viewBox="0 0 300 282" fill="none" xmlns="http://www.w3.org/2000/svg">
<g clip-path="url(#clip0_4418_18676)">
<path d="M239.417 200.327H231.475C230.99 188.922 221.594 179.822 210.027 179.822C198.46 179.822 189.04 188.945 188.555 200.327H113.751C113.267 188.922 103.847 179.822 92.28 179.822C80.7131 179.822 71.3165 188.945 70.8317 200.327H64.5288C59.311 200.327 55.0859 196.111 55.0859 190.927V133.282C55.0859 128.075 59.311 123.859 64.5288 123.859H77.5963C85.8848 139.042 102.046 149.295 120.585 149.295C139.125 149.295 155.263 139.019 163.574 123.836H218.2C222.148 123.836 225.68 126.301 227.065 130.011L248.283 187.655C250.522 193.807 245.974 200.327 239.417 200.327Z" stroke="#272E38" stroke-width="1.2" stroke-miterlimit="10" stroke-linecap="round"/>
<path d="M206.334 125.266L191.627 172.358H56.4492" stroke="#272E38" stroke-width="1.2" stroke-miterlimit="10" stroke-linecap="round"/>
<path d="M169.577 100.406C169.577 105.866 168.677 111.096 167.037 115.98C166.114 118.722 164.96 121.348 163.574 123.837C155.263 139.02 139.125 149.295 120.585 149.295C102.046 149.295 85.8846 139.043 77.5731 123.86C76.1878 121.372 75.0334 118.745 74.1099 116.003C72.4707 111.119 71.5703 105.889 71.5703 100.429C71.5703 73.4265 93.5035 51.5391 120.562 51.5391C147.621 51.5391 169.577 73.4035 169.577 100.406Z" stroke="#272E38" stroke-width="1.2" stroke-miterlimit="10" stroke-linecap="round"/>
<path d="M113.728 200.325C113.243 188.921 103.823 179.82 92.2566 179.82C80.6897 179.82 71.2931 188.944 70.8082 200.325C70.7852 200.625 70.7852 200.947 70.7852 201.27C70.7852 213.112 80.3896 222.697 92.2566 222.697C104.124 222.697 113.751 213.112 113.751 201.27C113.774 200.947 113.774 200.625 113.728 200.325Z" stroke="#272E38" stroke-width="1.2" stroke-miterlimit="10" stroke-linecap="round"/>
<path d="M231.455 200.325C230.97 188.921 221.573 179.82 210.006 179.82C198.439 179.82 189.02 188.944 188.535 200.325C188.512 200.625 188.512 200.947 188.512 201.27C188.512 213.112 198.139 222.697 210.006 222.697C221.873 222.697 231.478 213.112 231.478 201.27C231.501 200.947 231.501 200.625 231.455 200.325Z" stroke="#272E38" stroke-width="1.2" stroke-miterlimit="10" stroke-linecap="round"/>
<path d="M133.24 91.8367L119.78 81.0312L105.581 86.1921L114.654 95.8226M155.75 91.1686C157.112 94.6706 155.127 98.5873 151.479 99.5549L136.864 103.426L123.035 132.225H112.83L113.961 109.232L98.4004 114.623L86.418 91.6294H96.5996L104.011 99.4167L148.2 87.321C151.294 86.4916 154.572 88.1504 155.75 91.1686Z" stroke="#272E38" stroke-width="1.2" stroke-miterlimit="10" stroke-linecap="round"/>
</g>
<defs>
<clipPath id="clip0_4418_18676">
<rect width="300" height="281.818" fill="white"/>
</clipPath>
</defs>
</svg>
