<svg width="300" height="282" viewBox="0 0 300 282" fill="none" xmlns="http://www.w3.org/2000/svg">
<g clip-path="url(#clip0_4418_18780)">
<path d="M195.021 126.161C195.021 126.161 219.494 119.226 223.188 141.344C223.188 141.344 228.29 162.103 195.021 176.848M191.904 116.945H126.566C124.858 116.945 123.449 118.351 123.449 120.056V164.176H154.133C163.321 164.176 170.779 171.618 170.779 180.788V191.34C170.779 192.699 170.617 194.012 170.294 195.279H177.289C187.079 195.279 195.021 187.354 195.021 177.585V120.056C195.021 118.351 193.612 116.945 191.904 116.945Z" stroke="black" stroke-width="1.2" stroke-miterlimit="10"/>
<path d="M104.981 165.7C104.981 165.7 99.2087 177.22 104.981 189.892M125.759 165.7C125.759 165.7 119.987 177.22 125.759 189.892M146.538 165.7C146.538 165.7 140.766 177.22 146.538 189.892M170.78 180.791V191.343C170.78 192.702 170.619 194.016 170.295 195.283C168.541 202.563 161.961 207.955 154.134 207.955H92.7672C83.5784 207.955 76.1211 200.513 76.1211 191.343V180.791C76.1211 171.621 83.5784 164.18 92.7672 164.18H154.134C163.323 164.18 170.78 171.621 170.78 180.791Z" stroke="black" stroke-width="1.2" stroke-miterlimit="10" stroke-linecap="round"/>
<path d="M146.953 105.427L150.855 97.8932C152.217 95.2667 151.825 92.2946 149.793 89.9446C147.207 86.9264 147.346 82.9636 150.139 80.0607L156.788 73.1719" stroke="black" stroke-width="1.2" stroke-miterlimit="10" stroke-linecap="round"/>
<path d="M170.039 105.427L173.941 97.8932C175.303 95.2667 174.911 92.2946 172.879 89.9446C170.293 86.9264 170.432 82.9636 173.225 80.0607L179.874 73.1719" stroke="black" stroke-width="1.2" stroke-miterlimit="10" stroke-linecap="round"/>
</g>
<defs>
<clipPath id="clip0_4418_18780">
<rect width="300" height="281.818" fill="white"/>
</clipPath>
</defs>
</svg>
