<svg width="99" height="93" viewBox="0 0 99 93" fill="none" xmlns="http://www.w3.org/2000/svg">
<g clip-path="url(#clip0_4418_18780)">
<path d="M64.3569 41.635C64.3569 41.635 72.4329 39.3464 73.6519 46.6453C73.6519 46.6453 75.3357 53.4956 64.3569 58.3616M63.3283 38.5938H41.7668C41.203 38.5938 40.7383 39.0575 40.7383 39.6202V54.1799H50.8638C53.8961 54.1799 56.357 56.6357 56.357 59.6617V63.1439C56.357 63.5924 56.3037 64.0258 56.197 64.444H58.5056C61.736 64.444 64.3569 61.8285 64.3569 58.6049V39.6202C64.3569 39.0575 63.8921 38.5938 63.3283 38.5938Z" stroke="black" stroke-width="1.2" stroke-miterlimit="10"/>
<path d="M34.6447 54.6815C34.6447 54.6815 32.74 58.483 34.6447 62.6646M41.5017 54.6815C41.5017 54.6815 39.597 58.483 41.5017 62.6646M48.3587 54.6815C48.3587 54.6815 46.454 58.483 48.3587 62.6646M56.3586 59.6615V63.1436C56.3586 63.5922 56.3053 64.0256 56.1986 64.4437C55.6196 66.8463 53.4482 68.6254 50.8654 68.6254H30.6143C27.582 68.6254 25.1211 66.1696 25.1211 63.1436V59.6615C25.1211 56.6355 27.582 54.1797 30.6143 54.1797H50.8654C53.8977 54.1797 56.3586 56.6355 56.3586 59.6615Z" stroke="black" stroke-width="1.2" stroke-miterlimit="10" stroke-linecap="round"/>
<path d="M48.4961 34.7926L49.7837 32.3065C50.2332 31.4397 50.1037 30.4589 49.4332 29.6834C48.5799 28.6874 48.6256 27.3797 49.5475 26.4217L51.7417 24.1484" stroke="black" stroke-width="1.2" stroke-miterlimit="10" stroke-linecap="round"/>
<path d="M56.1133 34.7926L57.4009 32.3065C57.8504 31.4397 57.7209 30.4589 57.0504 29.6834C56.1971 28.6874 56.2428 27.3797 57.1647 26.4217L59.3589 24.1484" stroke="black" stroke-width="1.2" stroke-miterlimit="10" stroke-linecap="round"/>
</g>
<defs>
<clipPath id="clip0_4418_18780">
<rect width="99" height="93" fill="white"/>
</clipPath>
</defs>
</svg>
