<svg width="117" height="111" viewBox="0 0 117 111" fill="none" xmlns="http://www.w3.org/2000/svg">
<g clip-path="url(#clip0_4482_10179)">
<path d="M32.5675 37.406C32.2884 37.3697 32.0002 37.3425 31.7121 37.3425C28.3535 37.3425 25.6343 40.083 25.6343 43.4678C25.6343 46.8527 28.3535 49.5932 31.7121 49.5932M44.0928 37.3516C44.0928 34.0938 41.4726 31.4531 38.2401 31.4531C35.0076 31.4531 32.3874 34.0938 32.3874 37.3516M49.6214 89.5303H30.4605C28.8038 89.5303 27.3901 88.3052 27.147 86.6446L22.2667 53.468C21.9696 51.4262 23.5363 49.5932 25.5803 49.5932H54.5016C56.5455 49.5932 58.1123 51.4262 57.8151 53.468L52.9349 86.6446C52.6918 88.3052 51.2871 89.5303 49.6214 89.5303ZM47.2443 36.8979C44.0118 36.8979 41.3916 39.5386 41.3916 42.7963C41.3916 46.0541 44.0118 48.6948 47.2443 48.6948C50.4768 48.6948 53.097 46.0541 53.097 42.7963C53.097 39.5386 50.4768 36.8979 47.2443 36.8979Z" stroke="black" stroke-width="1.2" stroke-miterlimit="10" stroke-linecap="round"/>
<path d="M40.0402 74.1046C42.2779 74.1046 44.092 72.2763 44.092 70.0211C44.092 67.7658 42.2779 65.9375 40.0402 65.9375C37.8024 65.9375 35.9883 67.7658 35.9883 70.0211C35.9883 72.2763 37.8024 74.1046 40.0402 74.1046Z" stroke="black" stroke-width="1.2" stroke-miterlimit="10" stroke-linecap="round"/>
<path d="M84.1996 43.7734V86.2151C84.1996 88.0391 82.7319 89.5183 80.922 89.5183C79.1122 89.5183 77.6445 88.0391 77.6445 86.2151V43.7734" stroke="black" stroke-width="1.2" stroke-miterlimit="10" stroke-linecap="round"/>
<path d="M96.7765 43.7766H65.0549C63.245 43.7766 61.7773 42.2975 61.7773 40.4735V37.1703C61.7773 35.3463 63.245 33.8672 65.0549 33.8672H96.7765C98.5863 33.8672 100.054 35.3463 100.054 37.1703V40.4735C100.063 42.2975 98.5863 43.7766 96.7765 43.7766Z" stroke="black" stroke-width="1.2" stroke-miterlimit="10" stroke-linecap="round"/>
<path d="M66.152 33.5374L65.0625 26.4411C65.0625 24.4447 66.6742 22.8203 68.6552 22.8203H93.2005C95.1814 22.8203 96.7931 24.4447 96.7931 26.4411L95.7036 33.5374" stroke="black" stroke-width="1.2" stroke-miterlimit="10" stroke-linecap="round"/>
<path d="M73.2578 22.8281V28.1821" stroke="black" stroke-width="1.2" stroke-miterlimit="10" stroke-linecap="round"/>
<path d="M80.9219 22.8281V28.1821" stroke="black" stroke-width="1.2" stroke-miterlimit="10" stroke-linecap="round"/>
<path d="M88.5742 22.8281V28.1821" stroke="black" stroke-width="1.2" stroke-miterlimit="10" stroke-linecap="round"/>
</g>
<defs>
<clipPath id="clip0_4482_10179">
<rect width="117" height="111" fill="white"/>
</clipPath>
</defs>
</svg>
