<svg width="117" height="111" viewBox="0 0 117 111" fill="none" xmlns="http://www.w3.org/2000/svg">
<g clip-path="url(#clip0_4482_10122)">
<path d="M25.5711 69.9044V39.2869H23.3561C18.2868 39.2869 14.1719 43.434 14.1719 48.552V79.5507H108.625V48.552C108.625 43.434 104.511 39.2869 99.4412 39.2869H97.2352V69.9044M25.5711 69.9044H61.2186M25.5711 69.9044V35.3304C25.5711 32.1906 28.0923 29.6406 31.2167 29.6406H55.564C58.6884 29.6406 61.2186 32.1906 61.2186 35.3304V69.9044M61.2186 69.9044V39.2869H61.5878V69.9044M61.5878 69.9044H97.2352M61.5878 69.9044V35.3304C61.5878 32.1906 64.1089 29.6406 67.2334 29.6406H91.5806C94.705 29.6406 97.2352 32.1906 97.2352 35.3304V69.9044M19.9796 79.5507V90.3222M102.818 79.5507V90.3222" stroke="black" stroke-width="1.2" stroke-miterlimit="10"/>
</g>
<defs>
<clipPath id="clip0_4482_10122">
<rect width="117" height="111" fill="white"/>
</clipPath>
</defs>
</svg>
