<svg width="300" height="283" viewBox="0 0 300 283" fill="none" xmlns="http://www.w3.org/2000/svg">
<g clip-path="url(#clip0_4482_10008)">
<path d="M76.6957 91.4961H66.3063C60.5575 91.4961 55.9169 96.664 55.9169 103.032V179.166C55.9169 185.533 60.5575 190.701 66.3063 190.701H76.6957M55.9169 113.413H44.3731C38.0009 113.413 32.8293 118.581 32.8293 124.949V157.248C32.8293 163.616 38.0009 168.784 44.3731 168.784H55.9169M222.147 190.701H233.114C239.163 190.701 244.081 185.533 244.081 179.166V103.032C244.081 96.664 239.163 91.4961 233.114 91.4961H222.147M244.081 168.784H255.624C261.997 168.784 267.168 163.616 267.168 157.248V124.949C267.168 118.581 261.997 113.413 255.624 113.413H244.081M102.092 141.491H199.06M267.168 141.491H283.329M16.668 141.491H32.8293M89.3938 205.697C83.0217 205.697 77.8501 200.529 77.8501 194.162V88.0355C77.8501 81.6679 83.0217 76.5 89.3938 76.5C95.766 76.5 100.938 81.6679 100.938 88.0355V194.162C100.938 200.529 95.766 205.697 89.3938 205.697ZM199.06 88.0355V194.162C199.06 200.529 204.231 205.697 210.604 205.697C216.976 205.697 222.147 200.529 222.147 194.162V88.0355C222.147 81.6679 216.976 76.5 210.604 76.5C204.231 76.5 199.06 81.6679 199.06 88.0355Z" stroke="black" stroke-width="1.2" stroke-miterlimit="10" stroke-linecap="round"/>
</g>
<defs>
<clipPath id="clip0_4482_10008">
<rect width="300" height="282.203" fill="white"/>
</clipPath>
</defs>
</svg>
