<svg width="300" height="283" viewBox="0 0 300 283" fill="none" xmlns="http://www.w3.org/2000/svg">
<g clip-path="url(#clip0_4482_10258)">
<path d="M150.578 176.77V61.4772M241.197 229.804C241.197 241.264 231.892 250.557 220.418 250.557H79.5835C68.109 250.557 58.8047 241.264 58.8047 229.804C58.8047 218.344 68.109 209.051 79.5835 209.051C81.4074 209.051 83.1852 209.282 84.8937 209.72C84.8937 209.466 84.9398 209.236 84.9629 209.005C86.4867 197.661 96.9685 189.682 108.328 191.227C110.151 191.481 111.906 191.942 113.522 192.634C113.268 190.904 113.268 189.106 113.522 187.284C115.069 175.916 125.528 167.961 136.91 169.483C142.843 170.29 147.853 173.518 151.063 178.038C155.034 170.636 163.322 166.093 172.165 167.269C182.277 168.63 189.734 177.115 190.104 186.984C194.236 184.033 199.477 182.603 204.926 183.341C216.285 184.863 224.273 195.332 222.726 206.676C222.611 207.53 222.449 208.337 222.219 209.144C232.862 210.043 241.197 218.943 241.197 229.804ZM88.8185 222.886C84.986 222.886 81.8923 225.976 81.8923 229.804C81.8923 233.632 84.986 236.722 88.8185 236.722C92.6511 236.722 95.7448 233.632 95.7448 229.804C95.7448 225.976 92.6511 222.886 88.8185 222.886ZM130.376 222.886C126.544 222.886 123.45 225.976 123.45 229.804C123.45 233.632 126.544 236.722 130.376 236.722C134.209 236.722 137.302 233.632 137.302 229.804C137.302 225.976 134.209 222.886 130.376 222.886ZM171.934 222.886C168.101 222.886 165.008 225.976 165.008 229.804C165.008 233.632 168.101 236.722 171.934 236.722C175.766 236.722 178.86 233.632 178.86 229.804C178.86 225.976 175.766 222.886 171.934 222.886ZM215.8 222.886C211.968 222.886 208.874 225.976 208.874 229.804C208.874 233.632 211.968 236.722 215.8 236.722C219.633 236.722 222.726 233.632 222.726 229.804C222.726 225.976 219.633 222.886 215.8 222.886ZM171.934 192.91C168.101 192.91 165.008 196 165.008 199.828C165.008 203.656 168.101 206.746 171.934 206.746C175.766 206.746 178.86 203.656 178.86 199.828C178.86 196 175.766 192.91 171.934 192.91ZM134.994 197.522C131.161 197.522 128.067 200.612 128.067 204.44C128.067 208.267 131.161 211.357 134.994 211.357C138.826 211.357 141.92 208.267 141.92 204.44C141.92 200.612 138.826 197.522 134.994 197.522ZM125.135 145.548C135.617 151.797 148.2 150.045 148.2 150.045C148.2 150.045 143.79 138.147 133.308 131.898C122.827 125.649 110.244 127.401 110.244 127.401C110.244 127.401 114.654 139.276 125.135 145.548ZM133.493 99.3392C140.304 103.421 148.5 102.268 148.5 102.268C148.5 102.268 145.637 94.52 138.803 90.4617C131.992 86.3803 123.796 87.5333 123.796 87.5333C123.796 87.5333 126.682 95.2809 133.493 99.3392ZM189.55 104.458C189.55 104.458 177.105 102.729 166.739 108.908C156.373 115.111 152.009 126.871 152.009 126.871C152.009 126.871 164.453 128.6 174.82 122.421C185.186 116.218 189.55 104.458 189.55 104.458ZM150.578 29.1953C150.578 29.1953 141.851 40.0328 141.851 53.4067C141.851 66.7806 150.578 77.6181 150.578 77.6181C150.578 77.6181 159.305 66.7806 159.305 53.4067C159.305 40.0328 150.578 29.1953 150.578 29.1953Z" stroke="black" stroke-width="1.2" stroke-miterlimit="10" stroke-linecap="round"/>
</g>
<defs>
<clipPath id="clip0_4482_10258">
<rect width="300" height="282.051" fill="white"/>
</clipPath>
</defs>
</svg>
