<svg width="118" height="111" viewBox="0 0 118 111" fill="none" xmlns="http://www.w3.org/2000/svg">
<g clip-path="url(#clip0_4482_10008)">
<path d="M30.1656 35.9922H26.0791C23.8179 35.9922 21.9926 38.0249 21.9926 40.5295V70.4755C21.9926 72.9801 23.8179 75.0128 26.0791 75.0128H30.1656M21.9926 44.613H17.452C14.9456 44.613 12.9115 46.6457 12.9115 49.1503V61.8547C12.9115 64.3593 14.9456 66.392 17.452 66.392H21.9926M87.3766 75.0128H91.6901C94.0694 75.0128 96.0037 72.9801 96.0037 70.4755V40.5295C96.0037 38.0249 94.0694 35.9922 91.6901 35.9922H87.3766M96.0037 66.392H100.544C103.051 66.392 105.085 64.3593 105.085 61.8547V49.1503C105.085 46.6457 103.051 44.613 100.544 44.613H96.0037M40.1548 55.6568H78.2955M105.085 55.6568H111.442M6.55469 55.6568H12.9115M35.1602 80.9113C32.6538 80.9113 30.6196 78.8786 30.6196 76.374V34.631C30.6196 32.1265 32.6538 30.0938 35.1602 30.0938C37.6666 30.0938 39.7008 32.1265 39.7008 34.631V76.374C39.7008 78.8786 37.6666 80.9113 35.1602 80.9113ZM78.2955 34.631V76.374C78.2955 78.8786 80.3297 80.9113 82.836 80.9113C85.3424 80.9113 87.3766 78.8786 87.3766 76.374V34.631C87.3766 32.1265 85.3424 30.0938 82.836 30.0938C80.3297 30.0938 78.2955 32.1265 78.2955 34.631Z" stroke="black" stroke-width="1.2" stroke-miterlimit="10" stroke-linecap="round"/>
</g>
<defs>
<clipPath id="clip0_4482_10008">
<rect width="118" height="111" fill="white"/>
</clipPath>
</defs>
</svg>
