<svg width="99" height="93" viewBox="0 0 99 93" fill="none" xmlns="http://www.w3.org/2000/svg">
<g clip-path="url(#clip0_4418_18676)">
<path d="M79.009 66.1092H76.3881C76.2281 62.3457 73.1272 59.3425 69.3101 59.3425C65.4931 59.3425 62.3846 62.3533 62.2246 66.1092H37.5393C37.3793 62.3457 34.2708 59.3425 30.4537 59.3425C26.6367 59.3425 23.5358 62.3533 23.3758 66.1092H21.2958C19.5739 66.1092 18.1797 64.7178 18.1797 63.0071V43.9844C18.1797 42.2661 19.5739 40.8748 21.2958 40.8748H25.6081C28.3433 45.8852 33.6765 49.2685 39.7945 49.2685C45.9125 49.2685 51.2381 45.8776 53.9809 40.8672H72.0072C73.3101 40.8672 74.4757 41.6807 74.9329 42.9048L81.9347 61.9275C82.6737 63.9575 81.1728 66.1092 79.009 66.1092Z" stroke="#272E38" stroke-width="1.2" stroke-miterlimit="10" stroke-linecap="round"/>
<path d="M68.0908 41.3359L63.2376 56.8765H18.6289" stroke="#272E38" stroke-width="1.2" stroke-miterlimit="10" stroke-linecap="round"/>
<path d="M55.9594 33.1338C55.9594 34.9357 55.6623 36.6616 55.1213 38.2734C54.8166 39.1782 54.4356 40.0449 53.9785 40.8661C51.2357 45.8764 45.9101 49.2674 39.7921 49.2674C33.6741 49.2674 28.3409 45.884 25.5981 40.8737C25.141 40.0525 24.76 39.1858 24.4553 38.281C23.9143 36.6692 23.6172 34.9433 23.6172 33.1414C23.6172 24.2307 30.8551 17.0078 39.7845 17.0078C48.7138 17.0078 55.9594 24.2231 55.9594 33.1338Z" stroke="#272E38" stroke-width="1.2" stroke-miterlimit="10" stroke-linecap="round"/>
<path d="M37.5305 66.1104C37.3705 62.3469 34.262 59.3438 30.445 59.3438C26.6279 59.3438 23.527 62.3545 23.367 66.1104C23.3594 66.2093 23.3594 66.3157 23.3594 66.4221C23.3594 70.3301 26.5288 73.4929 30.445 73.4929C34.3611 73.4929 37.5382 70.3301 37.5382 66.4221C37.5458 66.3157 37.5458 66.2093 37.5305 66.1104Z" stroke="#272E38" stroke-width="1.2" stroke-miterlimit="10" stroke-linecap="round"/>
<path d="M76.3782 66.1104C76.2182 62.3469 73.1173 59.3438 69.3002 59.3438C65.4832 59.3438 62.3746 62.3545 62.2147 66.1104C62.207 66.2093 62.207 66.3157 62.207 66.4221C62.207 70.3301 65.3841 73.4929 69.3002 73.4929C73.2163 73.4929 76.3858 70.3301 76.3858 66.4221C76.3934 66.3157 76.3934 66.2093 76.3782 66.1104Z" stroke="#272E38" stroke-width="1.2" stroke-miterlimit="10" stroke-linecap="round"/>
<path d="M43.9668 30.308L39.5249 26.7422L34.8393 28.4453L37.8335 31.6233M51.3952 30.0875C51.8447 31.2432 51.1895 32.5357 49.9857 32.855L45.1629 34.1323L40.5992 43.6361H37.2316L37.605 36.0483L32.4698 37.8274L28.5156 30.2396H31.8756L34.3212 32.8094L48.9038 28.8178C49.9247 28.5441 51.0066 29.0915 51.3952 30.0875Z" stroke="#272E38" stroke-width="1.2" stroke-miterlimit="10" stroke-linecap="round"/>
</g>
<defs>
<clipPath id="clip0_4418_18676">
<rect width="99" height="93" fill="white"/>
</clipPath>
</defs>
</svg>
