<svg width="118" height="110" viewBox="0 0 118 110" fill="none" xmlns="http://www.w3.org/2000/svg">
<g clip-path="url(#clip0_4482_10424)">
<path d="M35.3897 90.9737C35.3897 92.7093 36.8154 94.1212 38.5681 94.1212H43.1087C44.8613 94.1212 46.287 92.7093 46.287 90.9737M72.6223 90.9737C72.6223 92.7093 74.048 94.1212 75.8007 94.1212H80.3412C82.0939 94.1212 83.5196 92.7093 83.5196 90.9737M47.6492 60.8478C47.6492 54.391 52.9344 49.1571 59.4547 49.1571C65.9749 49.1571 71.2601 54.391 71.2601 60.8478C71.2601 67.3046 65.9749 72.5384 59.4547 72.5384C52.9344 72.5384 47.6492 67.3046 47.6492 60.8478ZM47.6492 60.8478C47.6492 60.8478 56.9664 55.4341 59.4547 57.2507C60.8622 58.2848 58.2741 62.9161 59.4547 64.2021C61.5887 66.5402 71.2601 62.6464 71.2601 59.4989M87.034 90.0744H31.8753C28.7968 90.0744 26.3086 87.6104 26.3086 84.5618V24.5438C26.3086 21.4953 28.7968 19.0312 31.8753 19.0312H87.034C90.1125 19.0312 92.6007 21.4953 92.6007 24.5438V84.5618C92.6007 87.6014 90.1125 90.0744 87.034 90.0744ZM54.9141 29.373C54.9141 27.3856 53.2886 25.7759 51.2817 25.7759H37.66C35.6531 25.7759 34.0275 27.3856 34.0275 29.373C34.0275 31.3604 35.6531 32.9701 37.66 32.9701H51.2817C53.2886 32.9701 54.9141 31.3604 54.9141 29.373ZM81.2493 25.7759C79.2424 25.7759 77.6169 27.3856 77.6169 29.373C77.6169 31.3604 79.2424 32.9701 81.2493 32.9701C83.2563 32.9701 84.8818 31.3604 84.8818 29.373C84.8818 27.3856 83.2563 25.7759 81.2493 25.7759ZM59.4547 41.0636C48.4211 41.0636 39.4762 49.9215 39.4762 60.8478C39.4762 71.7741 48.4211 80.632 59.4547 80.632C70.4882 80.632 79.4331 71.7741 79.4331 60.8478C79.4331 49.9215 70.4882 41.0636 59.4547 41.0636Z" stroke="black" stroke-width="1.2" stroke-miterlimit="10"/>
</g>
<defs>
<clipPath id="clip0_4482_10424">
<rect width="118" height="110" fill="white"/>
</clipPath>
</defs>
</svg>
