<svg width="300" height="281" viewBox="0 0 300 281" fill="none" xmlns="http://www.w3.org/2000/svg">
<g clip-path="url(#clip0_4418_18832)">
<path d="M167.707 141.223L176.596 131.869L194.997 133.09L244.289 80.4219" stroke="#272E38" stroke-width="1.2" stroke-miterlimit="10" stroke-linecap="round"/>
<path d="M137.301 140.25L67.3455 206.097C61.8275 211.603 61.8275 220.542 67.3455 226.049C72.4247 231.117 80.3669 231.532 85.9079 227.316C86.208 226.993 86.9468 226.21 86.9468 226.21L157.826 151.608" stroke="#272E38" stroke-width="1.2" stroke-miterlimit="10" stroke-linecap="round"/>
<path d="M151.961 126.474L161.842 117.166L160.619 98.7806L214.459 48.5547" stroke="#272E38" stroke-width="1.2" stroke-miterlimit="10" stroke-linecap="round"/>
<path d="M184.168 98.5036L223.832 58.9219" stroke="#272E38" stroke-width="1.2" stroke-miterlimit="10" stroke-linecap="round"/>
<path d="M195.273 109.605L234.938 70.0234" stroke="#272E38" stroke-width="1.2" stroke-miterlimit="10" stroke-linecap="round"/>
<path d="M243.571 217.411C243.571 220.705 242.324 224.023 239.831 226.581C234.498 232.041 225.655 231.88 220.553 226.212L157.824 151.61L148.866 140.966C144.964 141.312 141.062 141.081 137.299 140.252C130.165 138.754 123.516 135.252 118.182 130.045C55.9845 69.037 61.5486 54.4069 67.5975 50.8819C69.4676 49.7991 71.8457 50.2138 73.3925 51.7113C98.1424 75.6954 125.917 102.006 151.96 126.474C157.293 131.497 162.557 136.427 167.705 141.219C198.666 170.203 225.494 194.993 239.323 207.734C242.14 210.338 243.571 213.863 243.571 217.411Z" stroke="#272E38" stroke-width="1.2" stroke-miterlimit="10"/>
</g>
<defs>
<clipPath id="clip0_4418_18832">
<rect width="300" height="281.818" fill="white" transform="translate(0 -1)"/>
</clipPath>
</defs>
</svg>
