<svg width="300" height="285" viewBox="0 0 300 285" fill="none" xmlns="http://www.w3.org/2000/svg">
<g clip-path="url(#clip0_4418_18948)">
<path d="M241.958 211.633C232.93 211.633 226.997 210.096 224.157 206.999C221.317 203.902 217.161 202.365 211.644 202.365C206.126 202.365 201.762 203.902 198.553 206.999C195.344 210.096 189.456 211.633 180.868 211.633C172.279 211.633 166.392 210.096 163.183 206.999C159.974 203.902 155.61 202.365 150.092 202.365C144.574 202.365 140.211 203.902 137.001 206.999C133.792 210.096 127.905 211.633 119.316 211.633C110.728 211.633 104.84 210.096 101.631 206.999C98.422 203.902 94.0585 202.365 88.5406 202.365C83.0226 202.365 78.8669 203.902 76.0271 206.999C73.1873 210.096 67.2538 211.633 58.2266 211.633M58.2727 185.994C64.0908 185.994 68.4544 184.457 71.3634 181.36C74.2724 178.262 80.0212 176.726 88.5867 176.726C97.1522 176.726 103.086 178.262 106.387 181.36C109.689 184.457 114.006 185.994 119.362 185.994C124.88 185.994 129.244 184.457 132.453 181.36C135.662 178.262 141.55 176.726 150.138 176.726C158.704 176.726 164.614 178.262 167.823 181.36C171.032 184.457 175.396 185.994 180.914 185.994C186.432 185.994 190.795 184.457 194.005 181.36C197.214 178.262 203.101 176.726 211.69 176.726C220.255 176.726 226.004 178.262 228.913 181.36C231.822 184.457 236.186 185.994 242.004 185.994M103.27 150.318L133.815 119.509L124.626 110.241C119.57 105.141 114.214 101.438 108.557 99.1327C102.901 96.8273 95.9286 95.6629 87.6632 95.6629V72.4922C99.1378 72.4922 108.627 73.773 116.13 76.3113C123.634 78.8496 130.976 83.7632 138.179 91.0288L196.96 150.318C194.351 152.018 191.834 153.368 189.387 154.37C186.94 155.371 184.1 155.884 180.891 155.884C175.373 155.884 171.009 154.347 167.8 151.249C164.591 148.152 158.704 146.615 150.115 146.615C141.55 146.615 135.639 148.152 132.43 151.249C129.221 154.347 124.857 155.884 119.339 155.884C116.13 155.884 113.29 155.371 110.843 154.37C108.396 153.368 105.879 152.018 103.27 150.318ZM193.289 72.4922C199.707 72.4922 205.156 74.7743 209.589 79.3153C214.022 83.8796 216.238 89.3055 216.238 95.6396C216.238 102.113 214.022 107.609 209.589 112.08C205.156 116.551 199.707 118.787 193.289 118.787C186.871 118.787 181.422 116.551 176.989 112.08C172.556 107.609 170.34 102.113 170.34 95.6396C170.34 89.3055 172.556 83.8563 176.989 79.3153C181.422 74.7743 186.847 72.4922 193.289 72.4922Z" stroke="#272E38" stroke-width="1.2" stroke-miterlimit="10" stroke-linecap="round"/>
</g>
<defs>
<clipPath id="clip0_4418_18948">
<rect width="300" height="284.848" fill="white"/>
</clipPath>
</defs>
</svg>
