<svg width="118" height="111" viewBox="0 0 118 111" fill="none" xmlns="http://www.w3.org/2000/svg">
<g clip-path="url(#clip0_4482_10504)">
<path d="M100.544 81.4198H17.4523C15.5725 81.4198 14.0469 79.8953 14.0469 78.0169V32.9889C14.0469 31.1105 15.5725 29.5859 17.4523 29.5859H100.544C102.424 29.5859 103.95 31.1105 103.95 32.9889V78.0259C103.95 79.8953 102.424 81.4198 100.544 81.4198Z" stroke="black" stroke-width="1.2" stroke-miterlimit="10" stroke-linecap="round"/>
<path d="M59 30.0938V80.9113" stroke="black" stroke-width="1.2" stroke-miterlimit="10" stroke-linecap="round"/>
<path d="M103.496 42.7969H57.6367" stroke="black" stroke-width="1.2" stroke-miterlimit="10" stroke-linecap="round"/>
<path d="M103.496 69.1094H57.6367" stroke="black" stroke-width="1.2" stroke-miterlimit="10" stroke-linecap="round"/>
<path d="M78.75 42.7969V69.1131" stroke="black" stroke-width="1.2" stroke-miterlimit="10" stroke-linecap="round"/>
<path d="M78.0695 55.8359H59.1172" stroke="black" stroke-width="1.2" stroke-miterlimit="10" stroke-linecap="round"/>
<path d="M14.0469 42.7969H59.9065" stroke="black" stroke-width="1.2" stroke-miterlimit="10" stroke-linecap="round"/>
<path d="M14.0469 69.1094H59.9065" stroke="black" stroke-width="1.2" stroke-miterlimit="10" stroke-linecap="round"/>
<path d="M38.793 42.7969V69.1131" stroke="black" stroke-width="1.2" stroke-miterlimit="10" stroke-linecap="round"/>
<path d="M39.0195 55.8359H58.435" stroke="black" stroke-width="1.2" stroke-miterlimit="10" stroke-linecap="round"/>
</g>
<defs>
<clipPath id="clip0_4482_10504">
<rect width="118" height="111" fill="white"/>
</clipPath>
</defs>
</svg>
