<svg width="300" height="283" viewBox="0 0 300 283" fill="none" xmlns="http://www.w3.org/2000/svg">
<g clip-path="url(#clip0_4482_10504)">
<path d="M255.624 206.992H44.3727C39.5936 206.992 35.7148 203.116 35.7148 198.34V83.8625C35.7148 79.0869 39.5936 75.2109 44.3727 75.2109H255.624C260.403 75.2109 264.282 79.0869 264.282 83.8625V198.363C264.282 203.116 260.403 206.992 255.624 206.992Z" stroke="black" stroke-width="1.2" stroke-miterlimit="10" stroke-linecap="round"/>
<path d="M150 76.5V205.697" stroke="black" stroke-width="1.2" stroke-miterlimit="10" stroke-linecap="round"/>
<path d="M263.127 108.805H146.535" stroke="black" stroke-width="1.2" stroke-miterlimit="10" stroke-linecap="round"/>
<path d="M263.127 175.711H146.535" stroke="black" stroke-width="1.2" stroke-miterlimit="10" stroke-linecap="round"/>
<path d="M200.215 108.805V175.71" stroke="black" stroke-width="1.2" stroke-miterlimit="10" stroke-linecap="round"/>
<path d="M198.481 141.961H150.297" stroke="black" stroke-width="1.2" stroke-miterlimit="10" stroke-linecap="round"/>
<path d="M35.7148 108.805H152.307" stroke="black" stroke-width="1.2" stroke-miterlimit="10" stroke-linecap="round"/>
<path d="M35.7148 175.711H152.307" stroke="black" stroke-width="1.2" stroke-miterlimit="10" stroke-linecap="round"/>
<path d="M98.6289 108.805V175.71" stroke="black" stroke-width="1.2" stroke-miterlimit="10" stroke-linecap="round"/>
<path d="M99.207 141.961H148.568" stroke="black" stroke-width="1.2" stroke-miterlimit="10" stroke-linecap="round"/>
</g>
<defs>
<clipPath id="clip0_4482_10504">
<rect width="300" height="282.203" fill="white"/>
</clipPath>
</defs>
</svg>
