<svg width="300" height="285" viewBox="0 0 300 285" fill="none" xmlns="http://www.w3.org/2000/svg">
<g clip-path="url(#clip0_4482_10179)">
<path d="M83.5091 95.9123C82.7934 95.8192 82.0546 95.7494 81.3158 95.7494C72.7041 95.7494 65.7316 102.776 65.7316 111.455C65.7316 120.134 72.7041 127.161 81.3158 127.161M113.061 95.7727C113.061 87.4195 106.343 80.6484 98.0543 80.6484C89.7658 80.6484 83.0473 87.4195 83.0473 95.7727M127.237 229.564H78.1066C73.8585 229.564 70.2337 226.423 69.6104 222.165L57.0969 137.097C56.335 131.862 60.3522 127.161 65.5931 127.161H139.75C144.991 127.161 149.009 131.862 148.247 137.097L135.733 222.165C135.11 226.423 131.508 229.564 127.237 229.564ZM121.142 94.6093C112.853 94.6093 106.135 101.38 106.135 109.734C106.135 118.087 112.853 124.858 121.142 124.858C129.43 124.858 136.149 118.087 136.149 109.734C136.149 101.38 129.43 94.6093 121.142 94.6093Z" stroke="black" stroke-width="1.2" stroke-miterlimit="10" stroke-linecap="round"/>
<path d="M102.671 190.004C108.409 190.004 113.06 185.316 113.06 179.533C113.06 173.75 108.409 169.062 102.671 169.062C96.9327 169.062 92.2812 173.75 92.2812 179.533C92.2812 185.316 96.9327 190.004 102.671 190.004Z" stroke="black" stroke-width="1.2" stroke-miterlimit="10" stroke-linecap="round"/>
<path d="M215.894 112.242V221.067C215.894 225.744 212.13 229.537 207.49 229.537C202.849 229.537 199.086 225.744 199.086 221.067V112.242" stroke="black" stroke-width="1.2" stroke-miterlimit="10" stroke-linecap="round"/>
<path d="M248.144 112.245H166.806C162.166 112.245 158.402 108.452 158.402 103.775V95.3055C158.402 90.6286 162.166 86.8359 166.806 86.8359H248.144C252.784 86.8359 256.548 90.6286 256.548 95.3055V103.775C256.571 108.452 252.784 112.245 248.144 112.245Z" stroke="black" stroke-width="1.2" stroke-miterlimit="10" stroke-linecap="round"/>
<path d="M169.626 85.9952L166.832 67.7996C166.832 62.6806 170.965 58.5156 176.044 58.5156H238.981C244.06 58.5156 248.193 62.6806 248.193 67.7996L245.399 85.9952" stroke="black" stroke-width="1.2" stroke-miterlimit="10" stroke-linecap="round"/>
<path d="M187.84 58.5391V72.2672" stroke="black" stroke-width="1.2" stroke-miterlimit="10" stroke-linecap="round"/>
<path d="M207.488 58.5391V72.2672" stroke="black" stroke-width="1.2" stroke-miterlimit="10" stroke-linecap="round"/>
<path d="M227.113 58.5391V72.2672" stroke="black" stroke-width="1.2" stroke-miterlimit="10" stroke-linecap="round"/>
</g>
<defs>
<clipPath id="clip0_4482_10179">
<rect width="300" height="284.615" fill="white"/>
</clipPath>
</defs>
</svg>
