<svg width="300" height="285" viewBox="0 0 300 285" fill="none" xmlns="http://www.w3.org/2000/svg">
<g clip-path="url(#clip0_4482_10122)">
<path d="M65.5687 179.233V100.726H59.8892C46.8909 100.726 36.3398 111.36 36.3398 124.483V203.967H278.529V124.483C278.529 111.36 267.978 100.726 254.979 100.726H249.323V179.233M65.5687 179.233H156.972M65.5687 179.233V90.5813C65.5687 82.5305 72.0332 75.9922 80.0446 75.9922H142.473C150.485 75.9922 156.972 82.5305 156.972 90.5813V179.233M156.972 179.233V100.726H157.919V179.233M157.919 179.233H249.323M157.919 179.233V90.5813C157.919 82.5305 164.384 75.9922 172.395 75.9922H234.824C242.835 75.9922 249.323 82.5305 249.323 90.5813V179.233M51.2313 203.967V231.586M263.637 203.967V231.586" stroke="black" stroke-width="1.2" stroke-miterlimit="10"/>
</g>
<defs>
<clipPath id="clip0_4482_10122">
<rect width="300" height="284.615" fill="white"/>
</clipPath>
</defs>
</svg>
