<svg width="117" height="110" viewBox="0 0 117 110" fill="none" xmlns="http://www.w3.org/2000/svg">
<g clip-path="url(#clip0_4482_10258)">
<path d="M58.7251 68.9368V23.9727M94.0664 89.6202C94.0664 94.0896 90.4377 97.7137 85.9627 97.7137H31.0373C26.5623 97.7137 22.9336 94.0896 22.9336 89.6202C22.9336 85.1508 26.5623 81.5267 31.0373 81.5267C31.7487 81.5267 32.442 81.6166 33.1083 81.7875C33.1083 81.6886 33.1263 81.5986 33.1353 81.5087C33.7296 77.0842 37.8175 73.9727 42.2475 74.5753C42.9588 74.6742 43.6432 74.854 44.2734 75.1238C44.1744 74.4494 44.1744 73.7479 44.2734 73.0375C44.8767 68.604 48.9556 65.5015 53.3947 66.095C55.7087 66.4098 57.6626 67.6688 58.9142 69.4314C60.4629 66.5447 63.6954 64.7731 67.144 65.2317C71.0878 65.7623 73.9962 69.0717 74.1402 72.9206C75.752 71.7695 77.7959 71.212 79.9209 71.4997C84.3509 72.0932 87.4664 76.176 86.8631 80.6004C86.8181 80.9332 86.755 81.2479 86.665 81.5627C90.8159 81.9134 94.0664 85.3846 94.0664 89.6202ZM34.639 86.9224C33.1443 86.9224 31.9378 88.1274 31.9378 89.6202C31.9378 91.113 33.1443 92.3181 34.639 92.3181C36.1337 92.3181 37.3402 91.113 37.3402 89.6202C37.3402 88.1274 36.1337 86.9224 34.639 86.9224ZM50.8465 86.9224C49.3518 86.9224 48.1452 88.1274 48.1452 89.6202C48.1452 91.113 49.3518 92.3181 50.8465 92.3181C52.3412 92.3181 53.5477 91.113 53.5477 89.6202C53.5477 88.1274 52.3412 86.9224 50.8465 86.9224ZM67.054 86.9224C65.5593 86.9224 64.3527 88.1274 64.3527 89.6202C64.3527 91.113 65.5593 92.3181 67.054 92.3181C68.5486 92.3181 69.7552 91.113 69.7552 89.6202C69.7552 88.1274 68.5486 86.9224 67.054 86.9224ZM84.1619 86.9224C82.6672 86.9224 81.4606 88.1274 81.4606 89.6202C81.4606 91.113 82.6672 92.3181 84.1619 92.3181C85.6565 92.3181 86.8631 91.113 86.8631 89.6202C86.8631 88.1274 85.6565 86.9224 84.1619 86.9224ZM67.054 75.2317C65.5593 75.2317 64.3527 76.4368 64.3527 77.9296C64.3527 79.4224 65.5593 80.6274 67.054 80.6274C68.5486 80.6274 69.7552 79.4224 69.7552 77.9296C69.7552 76.4368 68.5486 75.2317 67.054 75.2317ZM52.6473 77.0303C51.1526 77.0303 49.9461 78.2353 49.9461 79.7281C49.9461 81.2209 51.1526 82.426 52.6473 82.426C54.142 82.426 55.3486 81.2209 55.3486 79.7281C55.3486 78.2353 54.142 77.0303 52.6473 77.0303ZM48.8025 56.7605C52.8904 59.1976 57.7977 58.5141 57.7977 58.5141C57.7977 58.5141 56.0779 53.8738 51.99 51.4368C47.9021 48.9997 42.9949 49.6832 42.9949 49.6832C42.9949 49.6832 44.7146 54.3145 48.8025 56.7605ZM52.062 38.7389C54.7183 40.3307 57.9147 39.881 57.9147 39.881C57.9147 39.881 56.7982 36.8594 54.133 35.2767C51.4768 33.685 48.2803 34.1346 48.2803 34.1346C48.2803 34.1346 49.4058 37.1562 52.062 38.7389ZM73.9241 40.7353C73.9241 40.7353 69.0709 40.0609 65.028 42.4709C60.9852 44.89 59.2834 49.4763 59.2834 49.4763C59.2834 49.4763 64.1366 50.1508 68.1795 47.7407C72.2223 45.3217 73.9241 40.7353 73.9241 40.7353ZM58.7251 11.3828C58.7251 11.3828 55.3215 15.6094 55.3215 20.8253C55.3215 26.0411 58.7251 30.2677 58.7251 30.2677C58.7251 30.2677 62.1287 26.0411 62.1287 20.8253C62.1287 15.6094 58.7251 11.3828 58.7251 11.3828Z" stroke="black" stroke-width="1.2" stroke-miterlimit="10" stroke-linecap="round"/>
</g>
<defs>
<clipPath id="clip0_4482_10258">
<rect width="117" height="110" fill="white"/>
</clipPath>
</defs>
</svg>
