<svg width="300" height="280" viewBox="0 0 300 280" fill="none" xmlns="http://www.w3.org/2000/svg">
<g clip-path="url(#clip0_4482_10424)">
<path d="M89.9704 231.28C89.9704 235.692 93.5951 239.282 98.051 239.282H109.595C114.051 239.282 117.675 235.692 117.675 231.28M184.629 231.28C184.629 235.692 188.254 239.282 192.71 239.282H204.254C208.71 239.282 212.335 235.692 212.335 231.28M121.139 154.688C121.139 138.273 134.576 124.966 151.152 124.966C167.729 124.966 181.166 138.273 181.166 154.688C181.166 171.104 167.729 184.41 151.152 184.41C134.576 184.41 121.139 171.104 121.139 154.688ZM121.139 154.688C121.139 154.688 144.826 140.925 151.152 145.543C154.731 148.172 148.151 159.947 151.152 163.216C156.578 169.161 181.166 159.261 181.166 151.259M221.269 228.993H81.0355C73.2088 228.993 66.8828 222.729 66.8828 214.978V62.3901C66.8828 54.6395 73.2088 48.375 81.0355 48.375H221.269C229.096 48.375 235.422 54.6395 235.422 62.3901V214.978C235.422 222.706 229.096 228.993 221.269 228.993ZM139.609 74.6675C139.609 69.6148 135.476 65.5223 130.374 65.5223H95.7423C90.6399 65.5223 86.5073 69.6148 86.5073 74.6675C86.5073 79.7203 90.6399 83.8127 95.7423 83.8127H130.374C135.476 83.8127 139.609 79.7203 139.609 74.6675ZM206.563 65.5223C201.46 65.5223 197.328 69.6148 197.328 74.6675C197.328 79.7203 201.46 83.8127 206.563 83.8127C211.665 83.8127 215.798 79.7203 215.798 74.6675C215.798 69.6148 211.665 65.5223 206.563 65.5223ZM151.152 104.39C123.101 104.39 100.36 126.91 100.36 154.688C100.36 182.467 123.101 204.987 151.152 204.987C179.204 204.987 201.945 182.467 201.945 154.688C201.945 126.91 179.204 104.39 151.152 104.39Z" stroke="black" stroke-width="1.2" stroke-miterlimit="10"/>
</g>
<defs>
<clipPath id="clip0_4482_10424">
<rect width="300" height="279.661" fill="white"/>
</clipPath>
</defs>
</svg>
