<svg width="99" height="94" viewBox="0 0 99 94" fill="none" xmlns="http://www.w3.org/2000/svg">
<g clip-path="url(#clip0_4418_18948)">
<path d="M79.8461 69.8383C76.8671 69.8383 74.909 69.3311 73.9719 68.3091C73.0348 67.287 71.6634 66.7798 69.8424 66.7798C68.0215 66.7798 66.5816 67.287 65.5225 68.3091C64.4635 69.3311 62.5207 69.8383 59.6864 69.8383C56.8522 69.8383 54.9094 69.3311 53.8504 68.3091C52.7913 67.287 51.3514 66.7798 49.5305 66.7798C47.7095 66.7798 46.2696 67.287 45.2105 68.3091C44.1515 69.3311 42.2087 69.8383 39.3745 69.8383C36.5402 69.8383 34.5974 69.3311 33.5384 68.3091C32.4794 67.287 31.0394 66.7798 29.2185 66.7798C27.3975 66.7798 26.0261 67.287 25.089 68.3091C24.1519 69.3311 22.1938 69.8383 19.2148 69.8383M19.2301 61.3774C21.15 61.3774 22.59 60.8702 23.55 59.8481C24.51 58.8261 26.4071 58.3189 29.2337 58.3189C32.0603 58.3189 34.0184 58.8261 35.1079 59.8481C36.1974 60.8702 37.6221 61.3774 39.3897 61.3774C41.2106 61.3774 42.6506 60.8702 43.7096 59.8481C44.7686 58.8261 46.7115 58.3189 49.5457 58.3189C52.3723 58.3189 54.3227 58.8261 55.3818 59.8481C56.4408 60.8702 57.8808 61.3774 59.7017 61.3774C61.5226 61.3774 62.9626 60.8702 64.0216 59.8481C65.0806 58.8261 67.0234 58.3189 69.8577 58.3189C72.6843 58.3189 74.5814 58.8261 75.5414 59.8481C76.5014 60.8702 77.9413 61.3774 79.8613 61.3774M34.0793 49.6044L44.1591 39.4374L41.1268 36.3789C39.4583 34.6959 37.6907 33.474 35.824 32.7132C33.9574 31.9525 31.6565 31.5682 28.9289 31.5682V23.9219C32.7155 23.9219 35.8469 24.3445 38.323 25.1822C40.7992 26.0198 43.222 27.6413 45.5991 30.0389L64.9968 49.6044C64.1359 50.1653 63.3054 50.6111 62.4978 50.9415C61.6902 51.2719 60.7531 51.441 59.6941 51.441C57.8731 51.441 56.4332 50.9338 55.3741 49.9117C54.3151 48.8897 52.3723 48.3825 49.5381 48.3825C46.7115 48.3825 44.761 48.8897 43.702 49.9117C42.643 50.9338 41.203 51.441 39.3821 51.441C38.323 51.441 37.3859 51.2719 36.5783 50.9415C35.7707 50.6111 34.9403 50.1653 34.0793 49.6044ZM63.7854 23.9219C65.9035 23.9219 67.7015 24.675 69.1644 26.1735C70.6272 27.6797 71.3586 29.4703 71.3586 31.5605C71.3586 33.6969 70.6272 35.5105 69.1644 36.986C67.7015 38.4614 65.9035 39.1992 63.7854 39.1992C61.6674 39.1992 59.8693 38.4614 58.4065 36.986C56.9436 35.5105 56.2122 33.6969 56.2122 31.5605C56.2122 29.4703 56.9436 27.672 58.4065 26.1735C59.8693 24.675 61.6597 23.9219 63.7854 23.9219Z" stroke="#272E38" stroke-width="1.2" stroke-miterlimit="10" stroke-linecap="round"/>
</g>
<defs>
<clipPath id="clip0_4418_18948">
<rect width="99" height="94" fill="white"/>
</clipPath>
</defs>
</svg>
