<svg width="99" height="93" viewBox="0 0 99 93" fill="none" xmlns="http://www.w3.org/2000/svg">
<g clip-path="url(#clip0_4418_18832)">
<path d="M55.3438 46.9315L58.277 43.8447L64.3493 44.2477L80.6156 26.8672" stroke="#272E38" stroke-width="1.2" stroke-miterlimit="10" stroke-linecap="round"/>
<path d="M45.3103 46.6094L22.2251 68.3388C20.4041 70.1559 20.4041 73.1059 22.2251 74.923C23.9012 76.5956 26.5221 76.7325 28.3507 75.3411C28.4497 75.2347 28.6935 74.9762 28.6935 74.9762L52.0835 50.3577" stroke="#272E38" stroke-width="1.2" stroke-miterlimit="10" stroke-linecap="round"/>
<path d="M50.1484 42.0649L53.4093 38.9933L53.0055 32.9261L70.7728 16.3516" stroke="#272E38" stroke-width="1.2" stroke-miterlimit="10" stroke-linecap="round"/>
<path d="M60.7773 32.8354L73.8666 19.7734" stroke="#272E38" stroke-width="1.2" stroke-miterlimit="10" stroke-linecap="round"/>
<path d="M64.4414 36.4995L77.5307 23.4375" stroke="#272E38" stroke-width="1.2" stroke-miterlimit="10" stroke-linecap="round"/>
<path d="M80.3786 72.0772C80.3786 73.1645 79.9671 74.2593 79.1443 75.1032C77.3843 76.9051 74.4663 76.8519 72.7825 74.9816L52.082 50.363L49.1258 46.8504C47.8382 46.9645 46.5506 46.8885 45.3088 46.6147C42.9545 46.1205 40.7603 44.9649 39.0003 43.2466C18.475 23.1138 20.3112 18.2859 22.3073 17.1227C22.9244 16.7653 23.7092 16.9022 24.2197 17.3964C32.3871 25.3111 41.5526 33.9938 50.1468 42.0681C51.9067 43.7256 53.6438 45.3526 55.3429 46.9341C65.5598 56.4987 74.413 64.6795 78.9767 68.884C79.9062 69.7431 80.3786 70.9064 80.3786 72.0772Z" stroke="#272E38" stroke-width="1.2" stroke-miterlimit="10"/>
</g>
<defs>
<clipPath id="clip0_4418_18832">
<rect width="99" height="93" fill="white"/>
</clipPath>
</defs>
</svg>
