<svg width="300" height="285" viewBox="0 0 300 285" fill="none" xmlns="http://www.w3.org/2000/svg">
<g clip-path="url(#clip0_4482_10574)">
<path d="M245.03 112.642V104.15C245.03 96.3082 238.727 89.956 230.947 89.956H118.303C110.522 89.956 104.219 96.3082 104.219 104.15V112.642M221.943 88.7926C221.943 63.0814 201.279 42.2564 175.767 42.2564C150.256 42.2564 129.592 63.0814 129.592 88.7926M185.003 39.9296V35.276C185.003 30.1337 180.87 25.9688 175.767 25.9688C170.665 25.9688 166.532 30.1337 166.532 35.276V39.9296M39.5508 142.309H277.353M262.346 205.133H54.5808C46.2924 205.133 39.5508 198.362 39.5508 189.986V129.512C39.5508 121.159 46.2693 114.364 54.5808 114.364H262.346C270.634 114.364 277.376 121.135 277.376 129.512V189.986C277.353 198.362 270.634 205.133 262.346 205.133Z" stroke="black" stroke-width="1.2" stroke-miterlimit="10" stroke-linecap="round"/>
<path d="M68.3856 114.391V78.3253L10.3203 45.75" stroke="black" stroke-width="1.2" stroke-miterlimit="10" stroke-linecap="round"/>
<path d="M76.4883 205.133V230.472" stroke="black" stroke-width="1.2" stroke-miterlimit="10" stroke-linecap="round"/>
<path d="M240.41 205.133V230.472" stroke="black" stroke-width="1.2" stroke-miterlimit="10" stroke-linecap="round"/>
<path d="M77.2726 260.975C85.5607 260.975 92.2795 254.204 92.2795 245.851C92.2795 237.498 85.5607 230.727 77.2726 230.727C68.9845 230.727 62.2656 237.498 62.2656 245.851C62.2656 254.204 68.9845 260.975 77.2726 260.975Z" stroke="black" stroke-width="1.2" stroke-miterlimit="10" stroke-linecap="round"/>
<path d="M241.194 260.975C249.483 260.975 256.201 254.204 256.201 245.851C256.201 237.498 249.483 230.727 241.194 230.727C232.906 230.727 226.188 237.498 226.188 245.851C226.188 254.204 232.906 260.975 241.194 260.975Z" stroke="black" stroke-width="1.2" stroke-miterlimit="10" stroke-linecap="round"/>
</g>
<defs>
<clipPath id="clip0_4482_10574">
<rect width="300" height="284.615" fill="white"/>
</clipPath>
</defs>
</svg>
