<svg width="117" height="111" viewBox="0 0 117 111" fill="none" xmlns="http://www.w3.org/2000/svg">
<g clip-path="url(#clip0_4482_10574)">
<path d="M95.5589 43.9277V40.6155C95.5589 37.5574 93.1007 35.08 90.0663 35.08H46.135C43.1006 35.08 40.6425 37.5574 40.6425 40.6155V43.9277M86.5547 34.6263C86.5547 24.5989 78.496 16.4772 68.5464 16.4772C58.5968 16.4772 50.5381 24.5989 50.5381 34.6263M72.1481 15.5697V13.7548C72.1481 11.7493 70.5363 10.125 68.5464 10.125C66.5565 10.125 64.9447 11.7493 64.9447 13.7548V15.5697M15.4219 55.4978H108.165M102.312 79.9991H21.2836C18.0511 79.9991 15.4219 77.3584 15.4219 74.0916V50.5068C15.4219 47.249 18.0421 44.5992 21.2836 44.5992H102.312C105.544 44.5992 108.174 47.2399 108.174 50.5068V74.0916C108.165 77.3584 105.544 79.9991 102.312 79.9991Z" stroke="black" stroke-width="1.2" stroke-miterlimit="10" stroke-linecap="round"/>
<path d="M26.6689 44.6059V30.5403L4.02344 17.8359" stroke="black" stroke-width="1.2" stroke-miterlimit="10" stroke-linecap="round"/>
<path d="M29.8281 80V89.8822" stroke="black" stroke-width="1.2" stroke-miterlimit="10" stroke-linecap="round"/>
<path d="M93.7578 80V89.8822" stroke="black" stroke-width="1.2" stroke-miterlimit="10" stroke-linecap="round"/>
<path d="M30.134 101.781C33.3663 101.781 35.9867 99.1405 35.9867 95.8828C35.9867 92.6252 33.3663 89.9844 30.134 89.9844C26.9016 89.9844 24.2812 92.6252 24.2812 95.8828C24.2812 99.1405 26.9016 101.781 30.134 101.781Z" stroke="black" stroke-width="1.2" stroke-miterlimit="10" stroke-linecap="round"/>
<path d="M94.0636 101.781C97.296 101.781 99.9163 99.1405 99.9163 95.8828C99.9163 92.6252 97.296 89.9844 94.0636 89.9844C90.8313 89.9844 88.2109 92.6252 88.2109 95.8828C88.2109 99.1405 90.8313 101.781 94.0636 101.781Z" stroke="black" stroke-width="1.2" stroke-miterlimit="10" stroke-linecap="round"/>
</g>
<defs>
<clipPath id="clip0_4482_10574">
<rect width="117" height="111" fill="white"/>
</clipPath>
</defs>
</svg>
