<svg width="300" height="282" viewBox="0 0 300 282" fill="none" xmlns="http://www.w3.org/2000/svg">
<g clip-path="url(#clip0_4418_18896)">
<path d="M116.777 137.084C116.777 167.035 144.828 191.687 148.453 194.752C148.707 194.982 148.845 195.074 148.845 195.074C148.845 195.074 148.984 194.982 149.238 194.752C152.863 191.687 180.914 167.035 180.914 137.084C180.914 132.96 180.36 128.928 179.436 125.034M116.777 137.084C116.777 132.96 117.331 128.928 118.254 125.011M116.777 137.084C116.777 167.035 144.828 191.687 148.476 194.752C148.384 196.387 148.291 197.309 148.291 197.309C148.291 197.309 107.195 201.548 84.5003 178.901C61.7821 156.23 66.0533 115.243 66.0533 115.243C66.0533 115.243 95.4438 112.201 118.254 125.011M118.254 125.011C124.534 98.7694 148.845 79.0938 148.845 79.0938C148.845 79.0938 173.157 98.7924 179.436 125.034M179.436 125.034C202.224 112.224 231.637 115.266 231.637 115.266C231.637 115.266 235.909 156.253 213.214 178.924C190.495 201.594 149.423 197.332 149.423 197.332C149.423 197.332 149.33 196.41 149.238 194.775C152.863 191.71 180.914 167.058 180.914 137.107C180.914 132.96 180.36 128.928 179.436 125.034Z" stroke="black" stroke-width="1.2" stroke-miterlimit="10"/>
</g>
<defs>
<clipPath id="clip0_4418_18896">
<rect width="300" height="281.818" fill="white"/>
</clipPath>
</defs>
</svg>
