<svg width="99" height="93" viewBox="0 0 99 93" fill="none" xmlns="http://www.w3.org/2000/svg">
<g clip-path="url(#clip0_4418_18896)">
<path d="M38.5354 45.2383C38.5354 55.1222 47.7923 63.2575 48.9885 64.2687C49.0723 64.3447 49.118 64.3751 49.118 64.3751C49.118 64.3751 49.1637 64.3447 49.2476 64.2687C50.4437 63.2575 59.7007 55.1222 59.7007 45.2383C59.7007 43.8774 59.5178 42.5469 59.2131 41.262M38.5354 45.2383C38.5354 43.8774 38.7182 42.5469 39.023 41.2544M38.5354 45.2383C38.5354 55.1222 47.7923 63.2575 48.9961 64.2687C48.9657 64.8085 48.9352 65.1126 48.9352 65.1126C48.9352 65.1126 35.3735 66.5116 27.8842 59.0378C20.3872 51.5564 21.7967 38.0307 21.7967 38.0307C21.7967 38.0307 31.4955 37.0271 39.023 41.2544M39.023 41.2544C41.0953 32.5945 49.118 26.1016 49.118 26.1016C49.118 26.1016 57.1407 32.6021 59.2131 41.262M59.2131 41.262C66.7329 37.0347 76.4394 38.0383 76.4394 38.0383C76.4394 38.0383 77.8489 51.564 70.3595 59.0454C62.8625 66.5268 49.3085 65.1202 49.3085 65.1202C49.3085 65.1202 49.278 64.8161 49.2476 64.2763C50.4437 63.2651 59.7007 55.1298 59.7007 45.2459C59.7007 43.8774 59.5178 42.5469 59.2131 41.262Z" stroke="black" stroke-width="1.2" stroke-miterlimit="10"/>
</g>
<defs>
<clipPath id="clip0_4418_18896">
<rect width="99" height="93" fill="white"/>
</clipPath>
</defs>
</svg>
