<svg width="100" height="125" viewBox="0 0 100 125" fill="none" xmlns="http://www.w3.org/2000/svg">
<path fill-rule="evenodd" clip-rule="evenodd" d="M53.2267 124.454C52.7403 124.79 52.1564 124.98 51.5524 124.999C50.9484 125.017 50.3527 124.862 49.8444 124.555C38.7173 117.962 28.8337 109.68 20.5966 100.049C9.9186 87.4862 3.25165 73.5802 0.899252 60.1828C-1.44231 46.5819 0.747485 33.51 7.95646 22.8796C10.889 18.5582 14.5714 14.7279 18.8512 11.5472C29.0197 3.93804 40.6408 -0.0801693 52.2076 0.00121213C63.3626 0.0825935 74.3549 3.9889 83.8621 12.1169C87.1546 14.9392 89.9985 18.1903 92.3069 21.7707C100.058 33.744 101.727 49.0335 98.3234 64.496C95.4662 76.8111 90.0021 88.4623 82.2555 98.7582C74.5088 109.054 64.6373 117.785 53.2267 124.433V124.454ZM49.9745 24.1715C54.9086 24.1594 59.7356 25.5214 63.8444 28.0849C67.9532 30.6485 71.1591 34.2984 73.0562 38.5726C74.9533 42.8468 75.4563 47.5531 74.5016 52.0957C73.5469 56.6383 71.1774 60.813 67.693 64.0912C64.2087 67.3695 59.7661 69.6039 54.9277 70.5117C50.0894 71.4194 45.0728 70.9596 40.5131 69.1906C35.9533 67.4215 32.0554 64.4227 29.3128 60.5737C26.5702 56.7248 25.1062 52.1988 25.1062 47.5686C25.1062 41.3686 27.7287 35.4221 32.3975 31.0351C37.0664 26.6482 43.3999 24.1796 50.007 24.1715H49.9745Z" fill="#FF4B01"/>
<circle cx="50.1832" cy="50.1519" r="41.4371" fill="white"/>
<path d="M35.1074 35.7891L65.938 67.1382" stroke="#FF4B01" stroke-width="1.21881" stroke-linecap="round" stroke-linejoin="round"/>
<path d="M38.3704 31.8711L45.1946 38.8096C46.1365 39.7713 46.6653 41.0732 46.6653 42.4304C46.6653 43.7875 46.1365 45.0894 45.1946 46.0511C44.2488 47.0083 42.9688 47.5456 41.6343 47.5456C40.2999 47.5456 39.0199 47.0083 38.0741 46.0511L31.25 39.1125" stroke="#FF4B01" stroke-width="1.21881" stroke-linecap="round" stroke-linejoin="round"/>
<path d="M54.3672 46.25L33.8135 67.1494" stroke="#FF4B01" stroke-width="1.21881" stroke-linecap="round" stroke-linejoin="round"/>
<path d="M56.7937 35.2191L54.8434 37.2023C52.6873 39.3946 52.6871 42.9489 54.8428 45.1409C56.9986 47.333 60.4941 47.3327 62.6502 45.1404L64.6005 43.1572C66.7566 40.9649 66.7569 37.4106 64.6011 35.2186C62.4453 33.0265 58.9498 33.0268 56.7937 35.2191Z" stroke="#FF4B01" stroke-width="1.21881" stroke-linecap="round" stroke-linejoin="round"/>
</svg>
