<svg width="100" height="125" viewBox="0 0 100 125" fill="none" xmlns="http://www.w3.org/2000/svg">
<path fill-rule="evenodd" clip-rule="evenodd" d="M53.2267 124.454C52.7403 124.79 52.1564 124.98 51.5524 124.999C50.9484 125.017 50.3527 124.862 49.8444 124.555C38.7173 117.962 28.8337 109.68 20.5966 100.049C9.9186 87.4862 3.25165 73.5802 0.899252 60.1828C-1.44231 46.5819 0.747485 33.51 7.95646 22.8796C10.889 18.5582 14.5714 14.7279 18.8512 11.5472C29.0197 3.93804 40.6408 -0.0801693 52.2076 0.00121213C63.3626 0.0825935 74.3549 3.9889 83.8621 12.1169C87.1546 14.9392 89.9985 18.1903 92.3069 21.7707C100.058 33.744 101.727 49.0335 98.3234 64.496C95.4662 76.8111 90.0021 88.4623 82.2555 98.7582C74.5088 109.054 64.6373 117.785 53.2267 124.433V124.454ZM49.9745 24.1715C54.9086 24.1594 59.7356 25.5214 63.8444 28.0849C67.9532 30.6485 71.1591 34.2984 73.0562 38.5726C74.9533 42.8468 75.4563 47.5531 74.5016 52.0957C73.5469 56.6383 71.1774 60.813 67.693 64.0912C64.2087 67.3695 59.7661 69.6039 54.9277 70.5117C50.0894 71.4194 45.0728 70.9596 40.5131 69.1906C35.9533 67.4215 32.0554 64.4227 29.3128 60.5737C26.5702 56.7248 25.1062 52.1988 25.1062 47.5686C25.1062 41.3686 27.7287 35.4221 32.3975 31.0351C37.0664 26.6482 43.3999 24.1796 50.007 24.1715H49.9745Z" fill="white"/>
<path d="M59.0626 52.3091C59.8845 53.805 59.7198 55.264 58.5563 56.3516C57.4324 57.4022 55.8999 57.5576 54.2954 56.7808C51.004 55.1871 47.7211 55.2255 44.4569 56.8448C43.9128 57.1154 43.3466 57.2628 42.7358 57.2709C40.0585 57.2964 38.4368 54.7212 39.7343 52.4342C41.1482 49.9435 41.3851 47.3795 40.4858 44.7048C40.2886 44.1139 39.966 43.5805 39.6689 43.0343C38.9293 41.6763 39.1696 40.2332 40.292 39.2115C41.4109 38.1913 42.988 37.9846 44.4038 38.6894C47.7312 40.3453 51.0571 40.3599 54.3999 38.7263C55.941 37.9719 57.4923 38.185 58.6457 39.2803C59.7269 40.3068 59.8777 41.7724 59.0814 43.1946C57.3878 46.2263 57.3964 49.2726 59.0626 52.3091ZM70.5141 57.8297C66.6202 51.1 66.6752 44.3157 70.5572 37.578C72.153 34.8086 71.7102 31.4263 69.4105 29.2929C66.9087 26.9707 63.4113 26.511 60.3463 28.0471C53.0907 31.6809 45.8211 31.6858 38.5603 28.0471C37.4862 27.5071 36.3448 27.1676 35.1266 27.1484C32.2247 27.1005 29.9852 28.2776 28.4579 30.5423C26.9063 32.8453 26.9355 35.2557 28.324 37.6084C30.1944 40.7843 31.1656 44.1603 31.212 47.7382C31.1709 51.3402 30.2734 54.6922 28.3995 57.8025C27.6668 59.0197 27.2409 60.3217 27.3303 61.7038C27.6717 67.0116 33.6094 70.0066 38.6359 67.4776C45.8297 63.8581 53.0563 63.887 60.2639 67.4681C61.3949 68.0301 62.5805 68.3762 63.859 68.4146C69.2167 68.5732 73.5257 63.0366 70.5141 57.8297Z" fill="#FF4B01"/>
<rect x="36.6025" y="32.1914" width="27.7213" height="28.1408" fill="#FF4B01"/>
<circle cx="50.1832" cy="50.1519" r="41.4371" fill="#FF4B01"/>
<path d="M59.1291 55.8585C59.931 57.3212 59.7703 58.7477 58.635 59.8111C57.5384 60.8384 56.043 60.9903 54.4775 60.2308C51.2658 58.6725 48.0625 58.7101 44.8775 60.2933C44.3466 60.558 43.7941 60.7021 43.1981 60.71C40.5857 60.7349 39.0034 58.217 40.2694 55.9808C41.6491 53.5455 41.8802 51.0385 41.0027 48.4232C40.8103 47.8454 40.4955 47.3239 40.2056 46.7898C39.484 45.462 39.7184 44.0509 40.8136 43.0519C41.9054 42.0544 43.4442 41.8523 44.8257 42.5414C48.0724 44.1605 51.3177 44.1748 54.5794 42.5776C56.0832 41.8399 57.5968 42.0482 58.7222 43.1192C59.7772 44.1229 59.9244 45.5559 59.1473 46.9465C57.4949 49.9108 57.5033 52.8894 59.1291 55.8585ZM70.3029 61.2564C66.5033 54.6762 66.557 48.0427 70.3449 41.4547C71.902 38.7469 71.47 35.4397 69.2261 33.3538C66.7849 31.0831 63.3723 30.6337 60.3816 32.1356C53.302 35.6887 46.2086 35.6935 39.1239 32.1356C38.0759 31.6077 36.9621 31.2757 35.7735 31.2569C32.9419 31.2101 30.7567 32.361 29.2665 34.5754C27.7525 36.8273 27.781 39.184 29.1358 41.4844C30.9609 44.5898 31.9085 47.8908 31.9538 51.3892C31.9136 54.9112 31.0379 58.1886 29.2095 61.2298C28.4945 62.4199 28.079 63.6931 28.1662 65.0444C28.4993 70.2343 34.2931 73.1627 39.1977 70.6899C46.217 67.1508 53.2684 67.1791 60.3012 70.6806C61.4048 71.2302 62.5617 71.5686 63.8091 71.6061C69.0369 71.7612 73.2415 66.3476 70.3029 61.2564Z" fill="white"/>
</svg>
