<svg width="100" height="125" viewBox="0 0 100 125" fill="none" xmlns="http://www.w3.org/2000/svg">
<path fill-rule="evenodd" clip-rule="evenodd" d="M53.2267 124.454C52.7403 124.79 52.1564 124.98 51.5524 124.999C50.9484 125.017 50.3527 124.862 49.8444 124.555C38.7173 117.962 28.8337 109.68 20.5966 100.049C9.9186 87.4862 3.25165 73.5802 0.899252 60.1828C-1.44231 46.5819 0.747485 33.51 7.95646 22.8796C10.889 18.5582 14.5714 14.7279 18.8512 11.5472C29.0197 3.93804 40.6408 -0.0801693 52.2076 0.00121213C63.3626 0.0825935 74.3549 3.9889 83.8621 12.1169C87.1546 14.9392 89.9985 18.1903 92.3069 21.7707C100.058 33.744 101.727 49.0335 98.3234 64.496C95.4662 76.8111 90.0021 88.4623 82.2555 98.7582C74.5088 109.054 64.6373 117.785 53.2267 124.433V124.454ZM49.9745 24.1715C54.9086 24.1594 59.7356 25.5214 63.8444 28.0849C67.9532 30.6485 71.1591 34.2984 73.0562 38.5726C74.9533 42.8468 75.4563 47.5531 74.5016 52.0957C73.5469 56.6383 71.1774 60.813 67.693 64.0912C64.2087 67.3695 59.7661 69.6039 54.9277 70.5117C50.0894 71.4194 45.0728 70.9596 40.5131 69.1906C35.9533 67.4215 32.0554 64.4227 29.3128 60.5737C26.5702 56.7248 25.1062 52.1988 25.1062 47.5686C25.1062 41.3686 27.7287 35.4221 32.3975 31.0351C37.0664 26.6482 43.3999 24.1796 50.007 24.1715H49.9745Z" fill="#FF4B01"/>
<path d="M59.0626 52.3091C59.8845 53.805 59.7198 55.264 58.5563 56.3516C57.4324 57.4022 55.8999 57.5576 54.2954 56.7808C51.004 55.1871 47.7211 55.2255 44.4569 56.8448C43.9128 57.1154 43.3466 57.2628 42.7358 57.2709C40.0585 57.2964 38.4368 54.7212 39.7343 52.4342C41.1482 49.9435 41.3851 47.3795 40.4858 44.7048C40.2886 44.1139 39.966 43.5805 39.6689 43.0343C38.9293 41.6763 39.1696 40.2332 40.292 39.2115C41.4109 38.1913 42.988 37.9846 44.4038 38.6894C47.7312 40.3453 51.0571 40.3599 54.3999 38.7263C55.941 37.9719 57.4923 38.185 58.6457 39.2803C59.7269 40.3068 59.8777 41.7724 59.0814 43.1946C57.3878 46.2263 57.3964 49.2726 59.0626 52.3091ZM70.5141 57.8297C66.6202 51.1 66.6752 44.3157 70.5572 37.578C72.153 34.8086 71.7102 31.4263 69.4105 29.2929C66.9087 26.9707 63.4113 26.511 60.3463 28.0471C53.0907 31.6809 45.8211 31.6858 38.5603 28.0471C37.4862 27.5071 36.3448 27.1676 35.1266 27.1484C32.2247 27.1005 29.9852 28.2776 28.4579 30.5423C26.9063 32.8453 26.9355 35.2557 28.324 37.6084C30.1944 40.7843 31.1656 44.1603 31.212 47.7382C31.1709 51.3402 30.2734 54.6922 28.3995 57.8025C27.6668 59.0197 27.2409 60.3217 27.3303 61.7038C27.6717 67.0116 33.6094 70.0066 38.6359 67.4776C45.8297 63.8581 53.0563 63.887 60.2639 67.4681C61.3949 68.0301 62.5805 68.3762 63.859 68.4146C69.2167 68.5732 73.5257 63.0366 70.5141 57.8297Z" fill="#FF4B01"/>
<rect x="36.6025" y="32.1914" width="27.7213" height="28.1408" fill="#FF4B01"/>
<circle cx="50.1832" cy="50.1519" r="41.4371" fill="white"/>
<path d="M60.4611 54.0382C61.263 55.5009 61.1023 56.9274 59.967 57.9908C58.8704 59.0181 57.375 59.17 55.8095 58.4105C52.5978 56.8522 49.3946 56.8898 46.2096 58.473C45.6786 58.7377 45.1261 58.8818 44.5301 58.8897C41.9177 58.9146 40.3354 56.3966 41.6015 54.1604C42.9811 51.7252 43.2122 49.2181 42.3348 46.6029C42.1423 46.0251 41.8275 45.5036 41.5376 44.9695C40.816 43.6417 41.0504 42.2306 42.1456 41.2316C43.2374 40.2341 44.7763 40.0319 46.1577 40.7211C49.4045 42.3402 52.6497 42.3545 55.9114 40.7573C57.4152 40.0196 58.9289 40.2279 60.0543 41.2989C61.1092 42.3026 61.2564 43.7356 60.4794 45.1262C58.8269 48.0905 58.8353 51.0691 60.4611 54.0382ZM71.6349 59.4361C67.8354 52.8559 67.889 46.2224 71.6769 39.6344C73.234 36.9266 72.802 33.6194 70.5581 31.5335C68.1169 29.2628 64.7043 28.8134 61.7136 30.3153C54.634 33.8684 47.5406 33.8731 40.456 30.3153C39.4079 29.7874 38.2942 29.4554 37.1055 29.4366C34.2739 29.3898 32.0888 30.5407 30.5985 32.755C29.0845 35.0069 29.113 37.3637 30.4678 39.6641C32.2929 42.7694 33.2406 46.0705 33.2858 49.5689C33.2457 53.0908 32.37 56.3683 30.5415 59.4095C29.8265 60.5996 29.411 61.8728 29.4983 63.2241C29.8313 68.414 35.6251 71.3424 40.5297 68.8696C47.549 65.3305 54.6005 65.3588 61.6333 68.8603C62.7368 69.4098 63.8937 69.7482 65.1411 69.7858C70.3689 69.9409 74.5735 64.5273 71.6349 59.4361Z" fill="#FF4B01"/>
</svg>
