<svg width="28" height="28" viewBox="0 0 28 28" fill="none" xmlns="http://www.w3.org/2000/svg">
<rect width="28" height="28" rx="14" fill="white"/>
<path d="M20.855 14.3565L16.355 18.8565C16.2593 18.9384 16.1363 18.9812 16.0105 18.9763C15.8846 18.9715 15.7653 18.9193 15.6762 18.8303C15.5872 18.7412 15.535 18.6218 15.5301 18.496C15.5253 18.3702 15.5681 18.2471 15.65 18.1515L19.295 14.5015H7.5C7.36739 14.5015 7.24021 14.4488 7.14645 14.355C7.05268 14.2613 7 14.1341 7 14.0015C7 13.8689 7.05268 13.7417 7.14645 13.6479C7.24021 13.5542 7.36739 13.5015 7.5 13.5015H19.295L15.645 9.85648C15.5631 9.76083 15.5203 9.63779 15.5251 9.51195C15.53 9.38611 15.5822 9.26674 15.6712 9.1777C15.7603 9.08865 15.8796 9.03648 16.0055 9.03162C16.1313 9.02676 16.2543 9.06957 16.35 9.15148L20.85 13.6515C20.9431 13.7452 20.9954 13.8719 20.9954 14.004C20.9954 14.1361 20.9431 14.2628 20.85 14.3565H20.855Z" fill="black" stroke="black" stroke-width="0.4"/>
</svg>
