<svg width= "180" height="180" viewBox="0 0 136 113" fill="none" xmlns="http://www.w3.org/2000/svg">
<g filter="url(#filter0_dd_2215_23644)">
<rect x="34" y="30" width="68" height="35" rx="12" fill="white" shape-rendering="crispEdges"/>
<path d="M54.544 52.616C53.8613 52.616 53.2427 52.5093 52.688 52.296C52.1333 52.0827 51.6747 51.7947 51.312 51.432C50.96 51.0693 50.736 50.68 50.64 50.264L52.592 49.688C52.7093 50.008 52.9227 50.2853 53.232 50.52C53.552 50.744 53.952 50.8613 54.432 50.872C54.9333 50.8827 55.3387 50.776 55.648 50.552C55.968 50.328 56.128 50.0293 56.128 49.656C56.128 49.3573 56 49.1013 55.744 48.888C55.4987 48.664 55.1573 48.4987 54.72 48.392L53.408 48.072C52.9173 47.9333 52.4853 47.736 52.112 47.48C51.7387 47.224 51.4507 46.9093 51.248 46.536C51.0453 46.152 50.944 45.7093 50.944 45.208C50.944 44.2587 51.2533 43.5173 51.872 42.984C52.5013 42.4507 53.392 42.184 54.544 42.184C55.184 42.184 55.744 42.2747 56.224 42.456C56.7147 42.6373 57.1253 42.904 57.456 43.256C57.7867 43.5973 58.0373 44.008 58.208 44.488L56.256 45.08C56.1493 44.7707 55.9413 44.504 55.632 44.28C55.3333 44.0453 54.9493 43.928 54.48 43.928C54.0213 43.928 53.6587 44.04 53.392 44.264C53.1253 44.4773 52.992 44.776 52.992 45.16C52.992 45.4693 53.0933 45.72 53.296 45.912C53.5093 46.0933 53.7973 46.2267 54.16 46.312L55.488 46.648C56.352 46.8613 57.0187 47.2453 57.488 47.8C57.968 48.344 58.208 48.952 58.208 49.624C58.208 50.232 58.064 50.76 57.776 51.208C57.488 51.656 57.072 52.0027 56.528 52.248C55.984 52.4933 55.3227 52.616 54.544 52.616ZM53.696 54.648V51.864H55.456V54.648H53.696ZM53.696 43.304V40.52H55.456V43.304H53.696ZM60.3474 53L64.9554 43.608L67.2754 43.416L62.7794 53H60.3474ZM59.3874 43.8V41.8H67.2754V43.416L65.0514 43.8H59.3874ZM69.238 53L73.846 43.608L76.166 43.416L71.67 53H69.238ZM68.278 43.8V41.8H76.166V43.416L73.942 43.8H68.278ZM78.1286 53L82.7366 43.608L85.0566 43.416L80.5606 53H78.1286ZM77.1686 43.8V41.8H85.0566V43.416L82.8326 43.8H77.1686Z" fill="black"/>
<path d="M67.5 75L74.8612 62.25H60.1388L67.5 75Z" fill="white"/>
</g>
<defs>
<filter id="filter0_dd_2215_23644" x="0.599998" y="0.599998" width="134.8" height="111.8" filterUnits="userSpaceOnUse" color-interpolation-filters="sRGB">
<feFlood flood-opacity="0" result="BackgroundImageFix"/>
<feColorMatrix in="SourceAlpha" type="matrix" values="0 0 0 0 0 0 0 0 0 0 0 0 0 0 0 0 0 0 127 0" result="hardAlpha"/>
<feOffset dy="4"/>
<feGaussianBlur stdDeviation="16.7"/>
<feComposite in2="hardAlpha" operator="out"/>
<feColorMatrix type="matrix" values="0 0 0 0 0.613542 0 0 0 0 0.613542 0 0 0 0 0.613542 0 0 0 0.12 0"/>
<feBlend mode="normal" in2="BackgroundImageFix" result="effect1_dropShadow_2215_23644"/>
<feColorMatrix in="SourceAlpha" type="matrix" values="0 0 0 0 0 0 0 0 0 0 0 0 0 0 0 0 0 0 127 0" result="hardAlpha"/>
<feOffset dy="4"/>
<feGaussianBlur stdDeviation="16.7"/>
<feComposite in2="hardAlpha" operator="out"/>
<feColorMatrix type="matrix" values="0 0 0 0 0.613542 0 0 0 0 0.613542 0 0 0 0 0.613542 0 0 0 0.12 0"/>
<feBlend mode="normal" in2="effect1_dropShadow_2215_23644" result="effect2_dropShadow_2215_23644"/>
<feBlend mode="normal" in="SourceGraphic" in2="effect2_dropShadow_2215_23644" result="shape"/>
</filter>
</defs>
</svg>
