<svg width="64" height="43" viewBox="0 0 64 43" fill="none" xmlns="http://www.w3.org/2000/svg">
<rect width="64" height="33" rx="12" fill="#FF4B01"/>
<path d="M19.976 20.664C19.3787 20.664 18.8373 20.5707 18.352 20.384C17.8667 20.1973 17.4653 19.9453 17.148 19.628C16.84 19.3107 16.644 18.97 16.56 18.606L18.268 18.102C18.3707 18.382 18.5573 18.6247 18.828 18.83C19.108 19.026 19.458 19.1287 19.878 19.138C20.3167 19.1473 20.6713 19.054 20.942 18.858C21.222 18.662 21.362 18.4007 21.362 18.074C21.362 17.8127 21.25 17.5887 21.026 17.402C20.8113 17.206 20.5127 17.0613 20.13 16.968L18.982 16.688C18.5527 16.5667 18.1747 16.394 17.848 16.17C17.5213 15.946 17.2693 15.6707 17.092 15.344C16.9147 15.008 16.826 14.6207 16.826 14.182C16.826 13.3513 17.0967 12.7027 17.638 12.236C18.1887 11.7693 18.968 11.536 19.976 11.536C20.536 11.536 21.026 11.6153 21.446 11.774C21.8753 11.9327 22.2347 12.166 22.524 12.474C22.8133 12.7727 23.0327 13.132 23.182 13.552L21.474 14.07C21.3807 13.7993 21.1987 13.566 20.928 13.37C20.6667 13.1647 20.3307 13.062 19.92 13.062C19.5187 13.062 19.2013 13.16 18.968 13.356C18.7347 13.5427 18.618 13.804 18.618 14.14C18.618 14.4107 18.7067 14.63 18.884 14.798C19.0707 14.9567 19.3227 15.0733 19.64 15.148L20.802 15.442C21.558 15.6287 22.1413 15.9647 22.552 16.45C22.972 16.926 23.182 17.458 23.182 18.046C23.182 18.578 23.056 19.04 22.804 19.432C22.552 19.824 22.188 20.1273 21.712 20.342C21.236 20.5567 20.6573 20.664 19.976 20.664ZM19.234 22.442V20.006H20.774V22.442H19.234ZM19.234 12.516V10.08H20.774V12.516H19.234ZM27.686 11.046C28.3486 11.046 28.9086 11.1673 29.366 11.41C29.8326 11.6433 30.2106 11.97 30.5 12.39C30.7986 12.81 31.0133 13.3 31.144 13.86C31.284 14.4107 31.354 15.0033 31.354 15.638C31.354 16.394 31.2746 17.108 31.116 17.78C30.9573 18.4427 30.7146 19.0307 30.388 19.544C30.0706 20.048 29.66 20.4493 29.156 20.748C28.652 21.0373 28.0453 21.182 27.336 21.182C26.8226 21.182 26.3186 21.1073 25.824 20.958C25.3386 20.7993 24.9 20.5847 24.508 20.314L25.446 18.914C25.7446 19.11 26.0573 19.2593 26.384 19.362C26.72 19.4553 27.0233 19.502 27.294 19.502C28.022 19.502 28.5913 19.1847 29.002 18.55C29.422 17.906 29.6133 16.9027 29.576 15.54L29.968 15.792C29.7533 16.3053 29.422 16.7207 28.974 17.038C28.526 17.346 27.9893 17.5 27.364 17.5C26.748 17.5 26.1973 17.3553 25.712 17.066C25.2266 16.7673 24.8486 16.3707 24.578 15.876C24.3073 15.3813 24.172 14.8213 24.172 14.196C24.172 13.58 24.3166 13.0387 24.606 12.572C24.8953 12.096 25.3013 11.7227 25.824 11.452C26.356 11.1813 26.9766 11.046 27.686 11.046ZM27.686 12.656C27.378 12.656 27.1026 12.726 26.86 12.866C26.6173 13.006 26.426 13.1973 26.286 13.44C26.146 13.6827 26.076 13.9627 26.076 14.28C26.076 14.5973 26.146 14.882 26.286 15.134C26.426 15.386 26.6173 15.582 26.86 15.722C27.1026 15.862 27.378 15.932 27.686 15.932C27.994 15.932 28.2693 15.862 28.512 15.722C28.7546 15.582 28.946 15.386 29.086 15.134C29.2353 14.882 29.31 14.5973 29.31 14.28C29.31 13.9627 29.2353 13.6827 29.086 13.44C28.946 13.1973 28.7546 13.006 28.512 12.866C28.2693 12.726 27.994 12.656 27.686 12.656ZM35.807 21.168C35.2284 21.168 34.7057 21.084 34.239 20.916C33.7724 20.7387 33.3804 20.4913 33.063 20.174C32.755 19.8473 32.5404 19.4647 32.419 19.026L34.183 18.508C34.2484 18.62 34.337 18.76 34.449 18.928C34.561 19.0867 34.715 19.222 34.911 19.334C35.107 19.446 35.3637 19.502 35.681 19.502C36.1477 19.502 36.5164 19.376 36.787 19.124C37.067 18.8627 37.207 18.5267 37.207 18.116C37.207 17.836 37.137 17.5887 36.997 17.374C36.857 17.1593 36.6284 16.996 36.311 16.884C36.003 16.7627 35.597 16.702 35.093 16.702H34.505V15.4H35.023C35.583 15.4 36.1104 15.47 36.605 15.61C37.0997 15.7407 37.5337 15.9367 37.907 16.198C38.2897 16.45 38.5884 16.758 38.803 17.122C39.0177 17.4767 39.125 17.8827 39.125 18.34C39.125 18.928 38.971 19.4367 38.663 19.866C38.355 20.286 37.949 20.608 37.445 20.832C36.941 21.056 36.395 21.168 35.807 21.168ZM34.505 16.352V15.134H35.093C35.7464 15.134 36.2317 15.022 36.549 14.798C36.8664 14.574 37.025 14.266 37.025 13.874C37.025 13.65 36.969 13.4493 36.857 13.272C36.745 13.0947 36.5864 12.9547 36.381 12.852C36.1757 12.7493 35.9377 12.698 35.667 12.698C35.4897 12.698 35.3077 12.7307 35.121 12.796C34.9344 12.852 34.7617 12.95 34.603 13.09C34.4537 13.2207 34.3324 13.412 34.239 13.664L32.503 13.146C32.6337 12.6887 32.8577 12.306 33.175 11.998C33.5017 11.6807 33.889 11.4427 34.337 11.284C34.785 11.116 35.247 11.032 35.723 11.032C36.3297 11.032 36.8757 11.1487 37.361 11.382C37.8464 11.606 38.229 11.9187 38.509 12.32C38.789 12.7213 38.929 13.1833 38.929 13.706C38.929 14.154 38.8217 14.5413 38.607 14.868C38.3924 15.1947 38.0984 15.47 37.725 15.694C37.361 15.918 36.9457 16.086 36.479 16.198C36.0124 16.3007 35.527 16.352 35.023 16.352H34.505ZM40.3663 21V19.586C40.3663 19.3153 40.4503 19.0167 40.6183 18.69C40.7863 18.3633 41.0197 18.0367 41.3183 17.71C41.617 17.3833 41.967 17.08 42.3683 16.8L43.8523 15.736C44.0577 15.596 44.249 15.4373 44.4263 15.26C44.613 15.0827 44.7623 14.8913 44.8743 14.686C44.9957 14.4713 45.0563 14.266 45.0563 14.07C45.0563 13.8273 44.9957 13.608 44.8743 13.412C44.7623 13.216 44.5943 13.062 44.3703 12.95C44.1463 12.838 43.871 12.782 43.5443 12.782C43.2643 12.782 43.0123 12.838 42.7883 12.95C42.5737 13.062 42.3963 13.2113 42.2563 13.398C42.1163 13.5847 42.0183 13.7853 41.9623 14L39.9883 13.664C40.0817 13.1973 40.2823 12.7633 40.5903 12.362C40.8983 11.9607 41.2997 11.6387 41.7943 11.396C42.2983 11.144 42.8677 11.018 43.5023 11.018C44.2303 11.018 44.8557 11.1487 45.3783 11.41C45.901 11.6713 46.3023 12.0307 46.5823 12.488C46.8717 12.936 47.0163 13.4587 47.0163 14.056C47.0163 14.6627 46.8483 15.204 46.5123 15.68C46.1857 16.1467 45.733 16.5853 45.1543 16.996L43.8243 17.962C43.5537 18.1487 43.3203 18.354 43.1243 18.578C42.9283 18.802 42.779 19.0493 42.6763 19.32H47.1423V21H40.3663Z" fill="white"/>
<path d="M31.5 43L38.8612 30.25H24.1388L31.5 43Z" fill="#FF4B01"/>
</svg>
