<svg width="26" height="24" viewBox="0 0 13 12" fill="none" xmlns="http://www.w3.org/2000/svg">
<path d="M10.8906 5C10.8906 8.5 6.39062 11.5 6.39062 11.5C6.39062 11.5 1.89062 8.5 1.89062 5C1.89063 3.80653 2.36473 2.66193 3.20864 1.81802C4.05256 0.974106 5.19715 0.5 6.39062 0.5C7.5841 0.5 8.72869 0.974106 9.57261 1.81802C10.4165 2.66193 10.8906 3.80653 10.8906 5Z" stroke="#222222" stroke-linecap="round" stroke-linejoin="round"/>
<path d="M6.39062 6.5C7.21905 6.5 7.89062 5.82843 7.89062 5C7.89062 4.17157 7.21905 3.5 6.39062 3.5C5.5622 3.5 4.89062 4.17157 4.89062 5C4.89062 5.82843 5.5622 6.5 6.39062 6.5Z" stroke="#222222" stroke-linecap="round" stroke-linejoin="round"/>
</svg>
