<svg width="106" height="22" viewBox="0 0 53 11" fill="none" xmlns="http://www.w3.org/2000/svg">
<path d="M5.97883 0.857937L7.26065 3.49926H9.75579C9.88165 3.49484 10.0058 3.52928 10.1114 3.59788C10.217 3.66649 10.299 3.76594 10.3461 3.88273C10.3932 3.99952 10.4032 4.12799 10.3748 4.25067C10.3464 4.37336 10.2808 4.48432 10.1872 4.56847L8.02115 6.83159L9.22119 9.59149C9.27348 9.71766 9.28497 9.85703 9.25405 9.99007C9.22313 10.1231 9.15135 10.2431 9.04878 10.3333C8.9462 10.4235 8.81798 10.4793 8.68208 10.4929C8.54619 10.5065 8.40944 10.4773 8.29101 10.4092L5.39006 8.77681L2.49013 10.4123C2.37168 10.4807 2.23478 10.5103 2.09866 10.4968C1.96254 10.4834 1.83406 10.4276 1.73128 10.3374C1.6285 10.2471 1.5566 10.1269 1.52569 9.99367C1.49477 9.86043 1.50639 9.72085 1.55892 9.59456L2.75896 6.83466L0.593984 4.56847C0.500527 4.48448 0.435121 4.37381 0.406616 4.25144C0.37811 4.12906 0.38788 4.00088 0.434604 3.88424C0.481327 3.7676 0.562749 3.66812 0.667856 3.59927C0.772963 3.53042 0.896682 3.49551 1.02228 3.49926H3.51742L4.8023 0.857937C4.85812 0.750079 4.94252 0.659643 5.04627 0.596516C5.15001 0.533389 5.26912 0.5 5.39057 0.5C5.51201 0.5 5.63112 0.533389 5.73487 0.596516C5.83862 0.659643 5.92301 0.750079 5.97883 0.857937Z" fill="#222222"/>
</svg>